{"glyphs":{"0":{"ha":920,"x_min":0,"x_max":0,"o":"m 34 547 b 460 -5 34 253 190 -5 b 772 159 590 -5 694 50 b 886 547 848 264 886 394 b 772 934 886 700 848 829 b 460 1099 694 1044 590 1099 b 34 547 191 1099 34 840 z m 594 807 b 665 547 642 740 665 653 b 594 288 665 441 642 354 b 459 216 559 240 514 216 b 325 288 404 216 360 240 b 253 547 277 354 253 441 b 325 807 253 652 277 739 b 459 878 360 854 404 878 b 594 807 514 878 559 854 z "},"1":{"ha":432,"x_min":0,"x_max":0,"o":"m 34 1004 l 34 775 l 144 808 l 144 0 l 364 0 l 364 1098 z "},"2":{"ha":852,"x_min":0,"x_max":0,"o":"m 428 880 b 598 710 521 880 598 804 b 551 591 598 679 582 639 b 429 437 520 543 479 492 b 71 125 329 329 193 210 l 34 0 l 814 0 l 814 219 l 510 219 b 633 339 556 256 592 296 b 766 518 686 396 730 455 b 819 710 801 581 819 645 b 704 985 819 817 780 909 b 429 1099 628 1061 536 1099 b 152 985 321 1099 228 1061 b 38 710 76 909 38 818 l 258 710 b 428 880 258 803 335 880 z "},"3":{"ha":789,"x_min":0,"x_max":0,"o":"m 389 224 b 250 326 321 224 262 270 l 34 271 b 165 75 54 191 97 126 b 389 0 231 25 305 0 b 646 104 489 0 575 35 b 755 357 719 173 755 258 b 646 611 755 456 719 541 b 639 617 645 612 642 614 b 699 803 679 671 699 733 b 608 1023 699 888 669 962 b 389 1114 547 1084 474 1114 b 84 869 234 1114 113 999 l 302 822 b 389 892 309 859 344 892 b 477 804 437 892 477 851 l 479 805 b 439 716 479 772 466 743 b 314 659 413 689 371 670 l 268 568 b 465 500 354 564 420 542 b 534 359 511 459 534 412 b 389 224 534 281 467 224 z "},"4":{"ha":960,"x_min":0,"x_max":0,"o":"m 360 1098 l 34 235 l 597 235 l 597 0 l 817 0 l 817 235 l 926 235 l 926 454 l 817 454 l 817 879 l 597 879 l 597 454 l 363 454 l 597 1097 z "},"5":{"ha":833,"x_min":0,"x_max":0,"o":"m 400 219 b 252 300 335 219 286 246 l 34 231 b 400 0 88 107 228 0 b 682 112 510 0 604 37 b 800 382 760 186 800 276 b 681 649 800 486 760 575 b 413 762 602 724 512 762 b 296 746 355 762 342 760 l 309 875 l 710 875 l 710 1093 l 126 1093 l 71 525 l 193 462 b 296 534 236 499 270 523 b 413 549 322 544 361 549 l 413 549 b 521 498 466 549 491 526 b 571 382 554 465 571 427 b 400 219 571 290 492 219 z "},"6":{"ha":837,"x_min":0,"x_max":0,"o":"m 420 214 b 254 378 328 214 254 289 b 419 544 254 469 328 544 l 420 545 b 585 379 511 545 585 468 b 420 214 585 290 510 214 z m 385 1093 l 101 601 b 81 563 96 594 86 573 b 34 378 51 507 34 444 b 146 107 34 272 71 181 b 418 -4 221 33 311 -4 b 690 107 524 -4 615 33 b 803 378 765 181 803 272 b 699 640 803 479 768 566 b 446 762 630 713 545 753 l 635 1092 z "},"7":{"ha":815,"x_min":0,"x_max":0,"o":"m 34 1093 l 34 879 l 479 879 l 204 -4 l 435 -4 l 781 1093 z "},"8":{"ha":782,"x_min":0,"x_max":0,"o":"m 309 795 b 393 878 309 840 348 878 b 475 795 436 878 475 840 b 392 713 475 750 436 713 l 393 713 b 309 795 348 713 309 751 z m 635 616 b 694 794 674 669 694 729 b 606 1007 694 877 664 948 b 392 1095 546 1066 475 1095 b 178 1007 308 1095 237 1066 b 90 794 119 948 90 877 b 148 616 90 729 109 669 b 34 355 72 545 34 458 b 139 102 34 256 69 172 b 391 -1 208 33 292 -1 b 644 102 490 -1 574 33 b 748 355 713 172 748 256 b 635 616 748 458 710 545 z m 391 216 b 252 353 314 216 252 278 b 389 492 252 427 314 492 l 391 494 b 530 354 465 494 530 428 b 391 216 530 279 466 216 z "},"9":{"ha":837,"x_min":0,"x_max":0,"o":"m 253 715 b 418 880 253 804 327 880 b 583 715 508 880 583 804 b 418 550 583 625 508 550 b 253 715 328 550 253 626 z m 452 1 l 737 494 b 760 538 743 504 753 526 b 803 714 789 594 803 653 b 690 986 803 820 765 911 b 418 1099 615 1061 524 1099 b 146 986 311 1099 221 1061 b 34 714 71 910 34 819 b 138 452 34 613 68 526 b 391 331 206 379 290 338 l 201 0 z "}," ":{"ha":407,"x_min":0,"x_max":0,"o":""},"!":{"ha":403,"x_min":0,"x_max":0,"o":"m 201 -35 b 342 102 278 -35 342 26 b 201 243 342 179 278 243 b 61 105 125 243 61 182 b 201 -35 61 28 124 -35 z m 109 317 l 292 317 l 327 1093 l 73 1093 b 109 317 85 826 101 589 z "},"\"":{"ha":547,"x_min":0,"x_max":0,"o":"m 27 1121 l 55 765 l 219 765 l 248 1121 z m 300 1121 l 328 765 l 492 765 l 520 1121 z "},"#":{"ha":918,"x_min":0,"x_max":0,"o":"m 34 210 l 190 210 l 162 0 l 319 0 l 347 210 l 503 210 l 475 0 l 632 0 l 661 210 l 817 210 l 837 366 l 680 366 l 708 575 l 865 575 l 884 731 l 728 731 l 770 1044 l 613 1044 l 572 731 l 415 731 l 456 1044 l 300 1044 l 258 731 l 102 731 l 81 575 l 237 575 l 210 366 l 54 366 z m 551 575 l 524 366 l 368 366 l 395 575 z "},"$":{"ha":727,"x_min":0,"x_max":0,"o":"m 475 328 b 366 218 475 267 426 218 b 255 328 305 218 255 268 l 35 328 b 283 7 35 165 150 40 l 283 -105 l 448 -105 l 448 7 b 693 328 579 41 693 165 b 597 560 693 418 661 496 b 364 656 532 624 454 656 b 254 768 304 656 254 709 b 364 878 254 826 304 878 b 474 768 424 878 474 826 l 693 768 b 448 1086 693 929 578 1051 l 448 1199 l 283 1199 l 283 1086 b 34 768 150 1051 34 929 b 131 534 34 677 66 599 b 364 438 195 470 273 438 l 366 437 b 475 328 425 437 475 387 z "},"%":{"ha":1053,"x_min":0,"x_max":0,"o":"m 47 874 b 267 654 47 753 147 654 b 486 874 386 654 486 756 b 267 1093 486 992 385 1093 b 47 874 148 1093 47 994 z m 759 360 b 873 245 835 360 873 322 b 759 131 873 169 835 131 b 644 245 682 131 644 169 b 759 360 644 322 682 360 z m 513 245 b 760 0 513 111 624 0 b 1005 245 893 0 1005 112 b 932 418 1005 313 981 371 b 760 492 884 467 826 492 b 513 245 626 492 513 380 z m 739 1094 l 47 0 l 211 0 l 901 1094 z m 349 875 b 267 792 347 830 311 792 b 210 814 246 792 227 799 b 212 936 176 843 175 907 b 268 958 231 951 249 958 b 349 875 308 957 349 918 z "},"&":{"ha":1052,"x_min":0,"x_max":0,"o":"m 536 813 l 754 859 b 450 1105 725 990 605 1105 b 224 1006 364 1105 267 1049 b 140 819 179 961 140 906 b 211 617 142 751 180 660 b 193 602 202 610 196 605 b 96 494 159 570 126 534 b 47 340 65 455 49 404 b 153 92 47 243 83 160 b 411 -11 223 24 309 -11 b 551 9 453 -11 499 -4 b 720 106 629 29 677 56 b 753 82 730 98 741 90 b 1004 -3 817 44 897 -3 l 1004 200 b 844 266 946 198 883 241 b 890 549 881 347 887 436 l 684 546 b 673 398 682 489 683 444 b 613 458 659 411 639 431 b 470 616 559 518 511 562 b 389 748 421 682 428 673 b 366 817 371 782 363 805 b 450 882 374 861 402 882 b 536 813 494 882 527 851 z m 412 204 b 304 235 361 204 326 215 b 256 337 283 256 256 297 b 283 423 255 375 264 404 b 342 474 303 443 323 460 b 460 334 373 424 412 377 b 551 252 508 290 539 263 l 551 253 b 412 204 535 228 453 204 z "},"'":{"ha":275,"x_min":0,"x_max":0,"o":"m 27 1121 l 55 765 l 219 765 l 248 1121 z "},"(":{"ha":505,"x_min":0,"x_max":0,"o":"m 444 -31 b 320 138 395 -31 354 26 b 269 547 286 252 269 388 b 320 955 269 705 286 841 b 444 1124 354 1068 395 1124 l 406 1303 b 161 1058 309 1284 228 1202 b 61 547 94 913 61 743 b 161 36 61 350 94 180 b 406 -209 228 -108 310 -190 z "},")":{"ha":504,"x_min":0,"x_max":0,"o":"m 61 -31 l 99 -209 b 343 36 195 -189 276 -108 b 443 547 410 180 443 350 b 343 1058 443 743 410 913 b 99 1303 277 1202 195 1283 l 61 1124 b 184 955 109 1124 150 1068 b 236 547 219 842 236 706 b 184 138 236 387 219 251 b 61 -31 150 26 109 -31 z "},"*":{"ha":533,"x_min":0,"x_max":0,"o":"m 194 1148 l 206 1009 l 104 1086 l 27 973 l 178 895 l 27 815 l 104 703 l 206 780 l 194 641 l 339 641 l 327 780 l 429 703 l 506 815 l 356 895 l 506 973 l 429 1086 l 327 1009 l 339 1148 z "},"+":{"ha":699,"x_min":0,"x_max":0,"o":"m 47 369 l 254 369 l 254 94 l 446 94 l 446 369 l 652 369 l 652 561 l 446 561 l 446 836 l 254 836 l 254 561 l 47 561 z "},",":{"ha":402,"x_min":0,"x_max":0,"o":"m 54 99 b 154 -30 54 31 101 -12 b 120 -99 163 -59 151 -82 b 81 -137 88 -116 76 -128 b 180 -152 89 -148 158 -158 b 273 -95 222 -137 252 -118 b 348 96 317 -46 348 11 b 199 245 348 175 278 245 l 200 245 b 54 99 120 245 54 179 z "},"-":{"ha":631,"x_min":0,"x_max":0,"o":"m 47 369 l 583 369 l 583 561 l 47 561 z "},".":{"ha":403,"x_min":0,"x_max":0,"o":"m 201 -35 b 342 105 278 -35 342 28 b 201 245 342 181 278 245 b 61 105 125 245 61 182 b 201 -35 61 28 124 -35 z "},"/":{"ha":663,"x_min":0,"x_max":0,"o":"m 470 1233 l 0 -139 l 192 -139 l 663 1233 z "},":":{"ha":389,"x_min":0,"x_max":0,"o":"m 195 0 b 335 140 271 0 335 64 b 195 281 335 217 271 281 b 54 140 118 281 54 217 b 195 0 54 63 117 0 z m 195 620 b 335 760 271 620 335 683 b 195 900 335 836 271 900 b 54 760 117 900 54 837 b 195 620 54 682 117 620 z "},";":{"ha":402,"x_min":0,"x_max":0,"o":"m 196 620 b 336 760 273 620 336 683 b 196 900 336 836 273 900 b 56 760 119 900 56 837 b 196 620 56 682 119 620 z m 54 137 b 154 8 54 70 101 25 b 120 -60 163 -20 151 -43 b 81 -98 88 -77 76 -90 b 180 -113 89 -109 158 -120 b 273 -57 222 -98 252 -79 b 348 134 317 -8 348 49 b 199 283 348 214 279 283 l 201 283 b 54 137 120 283 54 217 z "},"<":{"ha":820,"x_min":0,"x_max":0,"o":"m 793 882 l 27 441 l 793 0 l 793 216 l 401 441 l 793 667 z "},"=":{"ha":658,"x_min":0,"x_max":0,"o":"m 54 204 l 604 204 l 604 396 l 54 396 z m 54 533 l 604 533 l 604 726 l 54 726 z "},">":{"ha":820,"x_min":0,"x_max":0,"o":"m 27 882 l 27 667 l 419 441 l 27 216 l 27 0 l 793 441 z "},"?":{"ha":754,"x_min":0,"x_max":0,"o":"m 371 -35 b 511 102 447 -35 511 26 b 371 243 511 179 447 243 b 230 105 294 243 230 182 b 371 -35 230 28 293 -35 z m 376 887 b 493 771 439 888 493 832 b 454 694 493 750 480 725 b 382 615 429 664 405 637 b 280 486 340 575 306 532 b 245 316 257 444 245 388 l 245 296 l 479 297 b 511 456 465 365 476 418 b 624 573 547 494 584 533 b 696 658 651 598 674 627 b 727 771 717 688 727 726 b 624 1018 727 867 692 949 b 377 1120 555 1086 473 1120 b 130 1018 281 1120 198 1086 b 27 771 61 950 27 867 l 259 771 b 376 887 259 832 312 888 z "},"@":{"ha":1463,"x_min":0,"x_max":0,"o":"m 832 290 b 1040 121 863 195 931 128 b 1330 245 1166 112 1263 153 b 1430 553 1396 337 1430 439 b 1235 1051 1430 774 1354 931 b 732 1244 1114 1171 954 1244 b 233 1042 535 1244 368 1177 b 34 544 100 908 34 742 b 233 47 34 345 100 179 b 733 -150 367 -84 533 -150 b 1028 -109 852 -150 942 -150 l 954 84 b 733 57 898 59 811 57 b 383 195 592 57 475 103 b 243 545 290 286 243 402 b 382 896 243 687 290 804 b 733 1034 475 988 592 1034 l 730 1034 b 1085 903 885 1034 1001 986 b 1219 555 1175 814 1219 698 b 1190 417 1219 517 1209 471 b 1088 317 1170 363 1136 330 b 1035 333 1072 313 1054 318 b 1006 419 1016 348 1006 377 l 1005 837 l 820 837 l 820 774 b 761 819 810 793 790 808 b 692 836 731 831 708 836 b 497 743 614 836 549 805 b 418 538 444 680 418 612 b 505 329 418 456 447 386 b 702 241 563 271 628 241 b 832 290 755 241 809 255 z m 821 537 b 715 433 819 470 779 433 b 611 538 657 433 611 480 b 715 643 611 595 658 643 l 716 642 b 821 537 777 642 821 601 z "},"A":{"ha":1052,"x_min":0,"x_max":0,"o":"m 27 0 l 264 0 l 338 166 l 713 166 l 787 0 l 1025 0 l 526 1116 z m 425 360 l 526 591 l 626 360 z "},"B":{"ha":842,"x_min":0,"x_max":0,"o":"m 677 794 b 590 1002 677 874 648 944 b 373 1093 530 1063 458 1093 l 297 1093 l 68 1093 l 68 0 l 474 0 b 715 102 569 0 649 34 b 815 345 782 169 815 250 b 715 587 815 439 782 520 b 631 643 695 607 658 630 b 677 794 652 679 677 742 z m 474 214 l 330 214 l 287 214 l 287 479 b 474 479 353 479 409 482 b 601 345 542 474 601 417 b 474 214 601 273 545 214 z m 465 785 b 369 685 465 730 421 691 b 287 680 334 682 306 680 l 287 880 l 373 880 b 465 785 424 880 465 836 z "},"C":{"ha":1002,"x_min":0,"x_max":0,"o":"m 975 154 l 818 311 b 582 213 753 245 674 213 b 347 310 490 213 412 245 b 250 545 282 375 250 453 b 347 781 250 636 282 715 b 582 878 411 846 490 878 b 817 781 673 878 751 846 l 974 937 b 581 1099 884 1024 749 1099 l 581 1102 b 190 939 429 1102 299 1048 b 27 546 81 829 27 698 b 190 154 27 393 81 262 b 581 -7 298 47 428 -7 b 975 154 752 -7 885 65 z "},"D":{"ha":932,"x_min":0,"x_max":0,"o":"m 359 1093 l 68 1093 l 68 0 l 359 0 b 758 160 517 0 651 53 b 905 546 856 257 905 386 b 758 932 905 705 856 834 b 359 1093 665 1025 530 1093 z m 686 547 b 360 219 686 350 557 219 l 287 219 l 287 876 l 358 876 b 686 547 555 876 686 743 z "},"E":{"ha":754,"x_min":0,"x_max":0,"o":"m 68 1096 l 68 -1 l 727 -1 l 727 217 l 288 217 l 288 437 l 617 437 l 617 656 l 288 656 l 288 877 l 727 877 l 727 1096 z "},"F":{"ha":754,"x_min":0,"x_max":0,"o":"m 68 1096 l 68 -1 l 288 -1 l 288 437 l 617 437 l 617 656 l 288 656 l 288 877 l 727 877 l 727 1096 z "},"G":{"ha":1162,"x_min":0,"x_max":0,"o":"m 581 1102 b 190 939 428 1102 297 1048 b 27 546 81 829 27 698 b 190 154 27 392 81 262 b 581 -8 297 46 427 -8 b 973 154 734 -8 864 46 b 1133 614 1081 261 1148 409 l 571 614 l 571 404 l 883 404 b 583 213 835 301 725 213 b 349 311 491 213 413 245 b 251 546 283 376 251 454 b 349 781 251 638 283 716 b 583 880 413 847 491 880 b 818 781 673 880 751 847 l 975 938 b 582 1100 885 1026 751 1100 z "},"H":{"ha":939,"x_min":0,"x_max":0,"o":"m 68 1093 l 68 0 l 287 0 l 287 438 l 652 438 l 652 0 l 871 0 l 871 1093 l 652 1093 l 652 656 l 287 656 l 287 1093 z "},"I":{"ha":355,"x_min":0,"x_max":0,"o":"m 68 0 l 288 0 l 288 1093 l 68 1093 z "},"J":{"ha":784,"x_min":0,"x_max":0,"o":"m 279 208 l 274 208 b 138 257 217 208 176 225 l 27 64 b 273 -12 99 15 180 -11 l 280 -12 b 587 116 399 -10 502 33 b 716 427 673 201 716 305 l 716 652 l 712 1093 l 492 1093 l 496 648 l 496 429 b 279 208 496 311 400 208 z "},"K":{"ha":900,"x_min":0,"x_max":0,"o":"m 68 1093 l 68 0 l 287 0 l 287 458 l 606 0 l 873 0 l 497 538 l 821 1093 l 567 1093 l 287 610 l 287 1093 z "},"L":{"ha":754,"x_min":0,"x_max":0,"o":"m 68 1093 l 68 0 l 727 0 l 727 218 l 288 218 l 288 1093 z "},"M":{"ha":1206,"x_min":0,"x_max":0,"o":"m 68 1119 l 68 0 l 288 0 l 288 453 l 604 18 l 919 453 l 919 0 l 1139 0 l 1139 1119 l 604 385 z "},"N":{"ha":1015,"x_min":0,"x_max":0,"o":"m 68 1116 l 68 -1 l 288 -1 l 288 606 l 947 -22 l 947 1096 l 726 1096 l 726 489 z "},"O":{"ha":1163,"x_min":0,"x_max":0,"o":"m 582 1102 b 190 939 430 1102 299 1048 b 27 546 81 829 27 698 b 190 154 27 393 81 262 b 582 -7 298 47 429 -7 b 974 154 735 -7 865 46 b 1137 546 1083 262 1137 393 b 974 939 1137 699 1083 830 b 582 1102 865 1048 734 1102 z m 582 880 b 817 783 673 880 751 848 b 915 547 882 717 915 639 b 817 312 915 455 882 377 b 582 215 751 247 673 215 b 347 312 490 215 411 247 b 249 547 281 377 249 456 b 347 783 249 638 281 717 b 582 880 411 848 489 880 z "},"P":{"ha":863,"x_min":0,"x_max":0,"o":"m 68 0 l 288 0 l 288 328 l 452 328 b 723 440 557 328 647 366 b 836 710 798 513 836 603 b 723 981 836 816 798 906 b 452 1093 648 1056 558 1093 l 68 1093 l 68 328 z m 616 710 b 452 545 616 621 542 545 l 288 546 l 288 876 l 452 876 b 616 710 541 876 616 799 z "},"Q":{"ha":1200,"x_min":0,"x_max":0,"o":"m 1155 -52 l 1173 163 b 1008 192 1107 167 1052 177 b 1137 546 1094 293 1137 411 b 974 939 1137 698 1083 829 b 581 1102 865 1048 734 1102 b 190 939 428 1102 297 1048 b 27 546 81 829 27 698 b 190 155 27 393 81 262 b 581 -7 297 47 427 -7 b 816 43 668 -7 746 10 b 1155 -52 903 -14 1008 -42 z m 467 525 l 454 309 b 542 286 487 307 516 299 b 631 218 566 273 596 250 b 581 215 613 216 597 215 b 347 313 489 215 411 248 b 249 548 281 377 249 455 b 347 783 249 639 281 718 b 581 880 411 848 489 880 b 817 783 672 880 751 848 b 914 548 882 718 914 639 b 829 326 914 462 886 388 b 642 477 774 386 697 448 b 467 525 590 504 532 520 z "},"R":{"ha":897,"x_min":0,"x_max":0,"o":"m 68 0 l 288 0 l 288 484 l 602 0 l 871 0 l 616 396 b 747 497 679 420 709 443 b 817 705 793 562 817 632 l 817 734 b 711 982 817 855 777 915 b 425 1093 645 1047 546 1093 l 68 1093 z m 446 573 l 372 573 l 372 574 l 288 574 l 288 876 l 411 876 b 547 832 464 876 518 860 b 590 727 576 802 590 767 b 446 573 590 644 526 573 z "},"S":{"ha":751,"x_min":0,"x_max":0,"o":"m 373 214 b 245 325 312 214 245 264 l 27 279 b 374 -8 52 116 205 -8 b 724 325 558 -8 724 141 b 464 622 724 477 602 582 b 263 769 388 645 263 671 b 375 880 263 830 314 880 b 485 770 435 880 485 830 l 703 816 b 373 1103 681 978 542 1103 b 40 770 189 1103 40 954 b 291 466 40 621 157 512 b 500 326 366 440 500 426 b 372 215 500 266 433 215 z "},"T":{"ha":812,"x_min":0,"x_max":0,"o":"m 27 1093 l 27 876 l 296 876 l 296 0 l 517 0 l 517 876 l 785 876 l 785 1093 z "},"U":{"ha":1020,"x_min":0,"x_max":0,"o":"m 510 212 b 289 432 390 212 289 313 l 289 1093 l 68 1093 l 68 431 b 197 119 68 309 111 205 b 511 -10 284 33 388 -10 b 823 119 632 -10 736 33 b 952 431 909 205 952 309 l 952 1093 l 731 1093 l 731 432 b 510 212 731 314 629 212 z "},"V":{"ha":1042,"x_min":0,"x_max":0,"o":"m 1015 1093 l 780 1093 l 519 494 l 260 1093 l 27 1093 l 520 -24 z "},"W":{"ha":1337,"x_min":0,"x_max":0,"o":"m 27 1093 l 466 -24 l 666 519 l 871 -24 l 1310 1093 l 1072 1093 l 871 576 l 669 1093 l 466 576 l 264 1093 z "},"X":{"ha":932,"x_min":0,"x_max":0,"o":"m 27 1093 l 339 547 l 27 1 l 279 0 l 466 326 l 653 0 l 905 0 l 592 547 l 905 1093 l 653 1093 l 466 768 l 279 1093 z "},"Y":{"ha":950,"x_min":0,"x_max":0,"o":"m 27 1093 l 366 469 l 366 0 l 584 0 l 584 469 l 923 1093 l 674 1093 l 475 714 l 275 1093 z "},"Z":{"ha":823,"x_min":0,"x_max":0,"o":"m 27 1093 l 27 876 l 448 876 l 27 0 l 796 0 l 796 218 l 376 218 l 796 1093 z "},"[":{"ha":593,"x_min":0,"x_max":0,"o":"m 68 547 b 297 317 68 420 171 317 b 526 547 422 317 526 421 b 297 777 526 672 422 777 b 68 547 171 777 68 673 z "},"\\":{"ha":635,"x_min":0,"x_max":0,"o":"m 165 1233 l 0 1233 l 470 -139 l 635 -139 z "},"]":{"ha":593,"x_min":0,"x_max":0,"o":"m 68 547 b 297 317 68 420 171 317 b 526 547 422 317 526 421 b 297 777 526 672 422 777 b 68 547 171 777 68 673 z "},"^":{"ha":670,"x_min":0,"x_max":0,"o":"m 27 575 l 217 575 l 334 775 l 452 575 l 643 575 l 334 1102 z "},"_":{"ha":820,"x_min":0,"x_max":0,"o":"m 0 -75 l 820 -75 l 820 75 l 0 75 z "},"`":{"ha":340,"x_min":0,"x_max":0,"o":"m 7 1083 l 219 737 l 333 792 l 192 1175 z "},"a":{"ha":1052,"x_min":0,"x_max":0,"o":"m 27 0 l 264 0 l 338 166 l 713 166 l 787 0 l 1025 0 l 526 1116 z m 425 360 l 526 591 l 626 360 z "},"b":{"ha":842,"x_min":0,"x_max":0,"o":"m 677 794 b 590 1002 677 874 648 944 b 373 1093 530 1063 458 1093 l 297 1093 l 68 1093 l 68 0 l 474 0 b 715 102 569 0 649 34 b 815 345 782 169 815 250 b 715 587 815 439 782 520 b 631 643 695 607 658 630 b 677 794 652 679 677 742 z m 474 214 l 330 214 l 287 214 l 287 479 b 474 479 353 479 409 482 b 601 345 542 474 601 417 b 474 214 601 273 545 214 z m 465 785 b 369 685 465 730 421 691 b 287 680 334 682 306 680 l 287 880 l 373 880 b 465 785 424 880 465 836 z "},"c":{"ha":1002,"x_min":0,"x_max":0,"o":"m 975 154 l 818 311 b 582 213 753 245 674 213 b 347 310 490 213 412 245 b 250 545 282 375 250 453 b 347 781 250 636 282 715 b 582 878 411 846 490 878 b 817 781 673 878 751 846 l 974 937 b 581 1099 884 1024 749 1099 l 581 1102 b 190 939 429 1102 299 1048 b 27 546 81 829 27 698 b 190 154 27 393 81 262 b 581 -7 298 47 428 -7 b 975 154 752 -7 885 65 z "},"d":{"ha":932,"x_min":0,"x_max":0,"o":"m 359 1093 l 68 1093 l 68 0 l 359 0 b 758 160 517 0 651 53 b 905 546 856 257 905 386 b 758 932 905 705 856 834 b 359 1093 665 1025 530 1093 z m 686 547 b 360 219 686 350 557 219 l 287 219 l 287 876 l 358 876 b 686 547 555 876 686 743 z "},"e":{"ha":754,"x_min":0,"x_max":0,"o":"m 68 1096 l 68 -1 l 727 -1 l 727 217 l 288 217 l 288 437 l 617 437 l 617 656 l 288 656 l 288 877 l 727 877 l 727 1096 z "},"f":{"ha":754,"x_min":0,"x_max":0,"o":"m 68 1096 l 68 -1 l 288 -1 l 288 437 l 617 437 l 617 656 l 288 656 l 288 877 l 727 877 l 727 1096 z "},"g":{"ha":1162,"x_min":0,"x_max":0,"o":"m 581 1102 b 190 939 428 1102 297 1048 b 27 546 81 829 27 698 b 190 154 27 392 81 262 b 581 -8 297 46 427 -8 b 973 154 734 -8 864 46 b 1133 614 1081 261 1148 409 l 571 614 l 571 404 l 883 404 b 583 213 835 301 725 213 b 349 311 491 213 413 245 b 251 546 283 376 251 454 b 349 781 251 638 283 716 b 583 880 413 847 491 880 b 818 781 673 880 751 847 l 975 938 b 582 1100 885 1026 751 1100 z "},"h":{"ha":939,"x_min":0,"x_max":0,"o":"m 68 1093 l 68 0 l 287 0 l 287 438 l 652 438 l 652 0 l 871 0 l 871 1093 l 652 1093 l 652 656 l 287 656 l 287 1093 z "},"i":{"ha":355,"x_min":0,"x_max":0,"o":"m 68 0 l 288 0 l 288 1093 l 68 1093 z "},"j":{"ha":784,"x_min":0,"x_max":0,"o":"m 279 208 l 274 208 b 138 257 217 208 176 225 l 27 64 b 273 -12 99 15 180 -11 l 280 -12 b 587 116 399 -10 502 33 b 716 427 673 201 716 305 l 716 652 l 712 1093 l 492 1093 l 496 648 l 496 429 b 279 208 496 311 400 208 z "},"k":{"ha":900,"x_min":0,"x_max":0,"o":"m 68 1093 l 68 0 l 287 0 l 287 458 l 606 0 l 873 0 l 497 538 l 821 1093 l 567 1093 l 287 610 l 287 1093 z "},"l":{"ha":754,"x_min":0,"x_max":0,"o":"m 68 1093 l 68 0 l 727 0 l 727 218 l 288 218 l 288 1093 z "},"m":{"ha":1206,"x_min":0,"x_max":0,"o":"m 68 1119 l 68 0 l 288 0 l 288 453 l 604 18 l 919 453 l 919 0 l 1139 0 l 1139 1119 l 604 385 z "},"n":{"ha":1015,"x_min":0,"x_max":0,"o":"m 68 1116 l 68 -1 l 288 -1 l 288 606 l 947 -22 l 947 1096 l 726 1096 l 726 489 z "},"o":{"ha":1163,"x_min":0,"x_max":0,"o":"m 582 1102 b 190 939 430 1102 299 1048 b 27 546 81 829 27 698 b 190 154 27 393 81 262 b 582 -7 298 47 429 -7 b 974 154 735 -7 865 46 b 1137 546 1083 262 1137 393 b 974 939 1137 699 1083 830 b 582 1102 865 1048 734 1102 z m 582 880 b 817 783 673 880 751 848 b 915 547 882 717 915 639 b 817 312 915 455 882 377 b 582 215 751 247 673 215 b 347 312 490 215 411 247 b 249 547 281 377 249 456 b 347 783 249 638 281 717 b 582 880 411 848 489 880 z "},"p":{"ha":863,"x_min":0,"x_max":0,"o":"m 68 0 l 288 0 l 288 328 l 452 328 b 723 440 557 328 647 366 b 836 710 798 513 836 603 b 723 981 836 816 798 906 b 452 1093 648 1056 558 1093 l 68 1093 l 68 328 z m 616 710 b 452 545 616 621 542 545 l 288 546 l 288 876 l 452 876 b 616 710 541 876 616 799 z "},"q":{"ha":1200,"x_min":0,"x_max":0,"o":"m 1155 -52 l 1173 163 b 1008 192 1107 167 1052 177 b 1137 546 1094 293 1137 411 b 974 939 1137 698 1083 829 b 581 1102 865 1048 734 1102 b 190 939 428 1102 297 1048 b 27 546 81 829 27 698 b 190 155 27 393 81 262 b 581 -7 297 47 427 -7 b 816 43 668 -7 746 10 b 1155 -52 903 -14 1008 -42 z m 467 525 l 454 309 b 542 286 487 307 516 299 b 631 218 566 273 596 250 b 581 215 613 216 597 215 b 347 313 489 215 411 248 b 249 548 281 377 249 455 b 347 783 249 639 281 718 b 581 880 411 848 489 880 b 817 783 672 880 751 848 b 914 548 882 718 914 639 b 829 326 914 462 886 388 b 642 477 774 386 697 448 b 467 525 590 504 532 520 z "},"r":{"ha":897,"x_min":0,"x_max":0,"o":"m 68 0 l 288 0 l 288 484 l 602 0 l 871 0 l 616 396 b 747 497 679 420 709 443 b 817 705 793 562 817 632 l 817 734 b 711 982 817 855 777 915 b 425 1093 645 1047 546 1093 l 68 1093 z m 446 573 l 372 573 l 372 574 l 288 574 l 288 876 l 411 876 b 547 832 464 876 518 860 b 590 727 576 802 590 767 b 446 573 590 644 526 573 z "},"s":{"ha":751,"x_min":0,"x_max":0,"o":"m 373 214 b 245 325 312 214 245 264 l 27 279 b 374 -8 52 116 205 -8 b 724 325 558 -8 724 141 b 464 622 724 477 602 582 b 263 769 388 645 263 671 b 375 880 263 830 314 880 b 485 770 435 880 485 830 l 703 816 b 373 1103 681 978 542 1103 b 40 770 189 1103 40 954 b 291 466 40 621 157 512 b 500 326 366 440 500 426 b 372 215 500 266 433 215 z "},"t":{"ha":812,"x_min":0,"x_max":0,"o":"m 27 1093 l 27 876 l 296 876 l 296 0 l 517 0 l 517 876 l 785 876 l 785 1093 z "},"u":{"ha":1020,"x_min":0,"x_max":0,"o":"m 510 212 b 289 432 390 212 289 313 l 289 1093 l 68 1093 l 68 431 b 197 119 68 309 111 205 b 511 -10 284 33 388 -10 b 823 119 632 -10 736 33 b 952 431 909 205 952 309 l 952 1093 l 731 1093 l 731 432 b 510 212 731 314 629 212 z "},"v":{"ha":1042,"x_min":0,"x_max":0,"o":"m 1015 1093 l 780 1093 l 519 494 l 260 1093 l 27 1093 l 520 -24 z "},"w":{"ha":1337,"x_min":0,"x_max":0,"o":"m 27 1093 l 466 -24 l 666 519 l 871 -24 l 1310 1093 l 1072 1093 l 871 576 l 669 1093 l 466 576 l 264 1093 z "},"x":{"ha":932,"x_min":0,"x_max":0,"o":"m 27 1093 l 339 547 l 27 1 l 279 0 l 466 326 l 653 0 l 905 0 l 592 547 l 905 1093 l 653 1093 l 466 768 l 279 1093 z "},"y":{"ha":950,"x_min":0,"x_max":0,"o":"m 27 1093 l 366 469 l 366 0 l 584 0 l 584 469 l 923 1093 l 674 1093 l 475 714 l 275 1093 z "},"z":{"ha":823,"x_min":0,"x_max":0,"o":"m 27 1093 l 27 876 l 448 876 l 27 0 l 796 0 l 796 218 l 376 218 l 796 1093 z "},"{":{"ha":680,"x_min":0,"x_max":0,"o":"m 68 547 b 340 274 68 397 191 274 b 532 354 415 274 479 301 b 612 547 586 407 612 471 b 532 740 612 622 586 687 b 340 820 479 793 415 820 b 68 547 191 820 68 696 z m 452 546 b 340 433 452 484 402 433 b 228 546 279 433 228 484 b 340 659 228 608 279 659 b 452 546 402 659 452 607 z "},"|":{"ha":402,"x_min":0,"x_max":0,"o":"m 136 1233 l 136 -139 l 267 -139 l 267 1233 z "},"}":{"ha":680,"x_min":0,"x_max":0,"o":"m 68 547 b 340 274 68 397 191 274 b 532 354 415 274 479 301 b 612 547 586 407 612 471 b 532 740 612 622 586 687 b 340 820 479 793 415 820 b 68 547 191 820 68 696 z m 452 546 b 340 433 452 484 402 433 b 228 546 279 433 228 484 b 340 659 228 608 279 659 b 452 546 402 659 452 607 z "},"~":{"ha":841,"x_min":0,"x_max":0,"o":"m 798 476 l 800 675 b 677 579 757 627 716 595 b 445 631 639 564 562 581 b 184 690 317 685 230 705 b 41 588 137 675 90 641 l 45 404 b 188 510 101 461 149 496 b 420 469 227 524 304 510 b 657 400 528 430 607 407 b 800 475 707 394 754 419 z "},"":{"ha":1351,"x_min":0,"x_max":0,"o":""},"¡":{"ha":403,"x_min":0,"x_max":0,"o":"m 201 687 b 342 827 278 687 342 750 b 201 964 342 904 278 964 b 61 824 124 964 61 901 b 201 687 61 747 124 687 z m 73 -163 l 327 -163 l 292 613 l 109 613 b 73 -163 101 341 85 104 z "},"¢":{"ha":861,"x_min":0,"x_max":0,"o":"m 834 210 l 700 345 b 498 261 645 289 578 261 b 216 545 342 261 216 388 b 298 746 216 623 244 690 b 498 829 353 802 420 829 b 700 746 576 829 643 802 l 834 880 b 556 1015 767 944 671 1001 l 556 1235 l 413 1234 l 413 1010 b 166 878 319 994 237 950 b 27 545 73 786 27 675 b 166 210 27 414 73 302 b 413 79 238 138 320 94 l 413 -140 l 556 -140 l 556 74 b 834 210 672 87 766 142 z "},"£":{"ha":779,"x_min":0,"x_max":0,"o":"m 536 879 l 541 879 b 625 861 574 878 602 872 l 736 1053 b 639 1087 691 1069 659 1080 b 541 1098 620 1094 587 1098 l 533 1098 b 227 970 414 1096 312 1053 b 98 660 141 884 98 781 l 99 597 l 99 581 l 27 581 l 27 458 l 99 458 l 99 218 l 42 218 l 42 0 l 751 0 l 751 218 l 317 218 l 317 298 l 318 298 l 318 458 l 547 458 l 547 581 l 318 581 l 318 659 b 536 879 318 776 415 879 z "},"¤":{"ha":786,"x_min":0,"x_max":0,"o":"m 506 546 b 473 467 505 515 494 489 b 314 469 429 423 357 425 b 315 627 271 512 272 585 b 506 546 385 697 507 643 z m 245 776 l 125 899 l 47 821 l 168 698 b 164 399 109 610 105 490 l 41 279 l 118 200 l 241 321 b 543 317 330 259 451 258 l 664 195 l 742 273 l 622 395 b 624 696 683 484 683 605 l 745 817 l 667 895 l 545 775 b 245 776 455 833 335 834 z "},"¥":{"ha":956,"x_min":0,"x_max":0,"o":"m 41 1093 l 319 582 l 50 582 l 50 447 l 368 447 l 368 374 l 50 374 l 50 239 l 368 239 l 368 0 l 587 0 l 587 239 l 906 239 l 906 374 l 587 374 l 587 447 l 906 447 l 906 582 l 636 582 l 915 1093 l 666 1093 l 477 747 l 289 1093 z "},"¦":{"ha":402,"x_min":0,"x_max":0,"o":"m 136 1233 l 136 643 l 267 643 l 267 1233 z m 267 450 l 136 450 l 136 -139 l 267 -139 z "},"§":{"ha":767,"x_min":0,"x_max":0,"o":"m 276 551 b 387 638 288 611 325 640 b 492 543 449 635 484 604 b 379 455 479 483 442 454 b 276 551 317 456 283 489 z m 713 563 b 667 713 713 623 698 673 b 458 854 613 783 543 830 b 386 876 419 866 395 873 b 288 938 376 878 305 921 b 277 979 281 945 277 959 b 386 1088 277 1038 327 1088 b 495 979 444 1088 495 1038 l 712 979 b 616 1210 712 1069 680 1146 b 385 1306 552 1274 475 1306 b 153 1210 294 1306 217 1274 b 57 979 89 1146 57 1069 b 68 907 57 949 61 925 b 169 779 87 859 131 810 b 54 531 97 715 54 629 b 98 382 54 472 69 422 b 301 233 150 310 218 261 b 435 184 387 202 348 216 b 486 80 493 163 510 128 b 381 7 462 31 427 7 l 382 5 b 273 115 322 5 273 55 l 55 115 b 151 -116 55 25 87 -52 b 382 -212 215 -180 292 -212 b 614 -116 472 -212 550 -180 b 710 115 678 -52 710 25 b 699 187 710 144 706 169 b 596 313 678 236 637 280 b 713 563 667 377 713 460 z "},"¨":{"ha":1351,"x_min":0,"x_max":0,"o":"m 147 503 l 105 159 l 173 159 l 195 345 l 374 153 b 464 884 404 396 434 640 l 271 660 l 134 884 l 92 542 l 160 542 l 177 681 l 257 547 l 370 681 b 325 309 355 557 340 433 z m 573 652 l 612 722 l 633 652 z m 538 593 l 653 593 b 668 547 658 578 663 562 l 686 496 l 795 153 l 989 496 l 917 496 l 815 312 b 744 542 791 389 767 464 l 632 884 l 437 542 l 509 542 l 538 591 z m 768 541 l 836 541 l 852 673 l 922 541 l 1004 541 l 943 658 b 1025 755 986 673 1019 710 b 920 877 1035 827 992 877 l 811 877 l 797 760 b 768 541 788 686 778 613 z m 859 715 b 870 810 863 747 866 779 l 907 810 b 947 797 925 810 939 806 b 907 715 974 766 943 715 z m 1196 779 l 1263 779 b 1174 879 1270 835 1228 879 b 1059 779 1116 879 1065 831 b 1143 680 1052 718 1101 693 l 1143 677 b 1179 640 1160 668 1182 667 b 1141 606 1176 623 1160 606 b 1111 640 1122 606 1107 621 l 1042 640 b 1133 539 1035 583 1078 539 b 1247 640 1190 539 1240 587 b 1177 733 1252 694 1214 720 b 1139 751 1159 738 1155 739 b 1165 813 1112 771 1135 813 b 1196 779 1184 813 1196 799 z m 467 498 l 425 160 l 627 160 l 635 227 l 500 227 l 509 295 l 610 295 l 618 362 l 517 362 l 526 431 l 660 431 l 668 498 z m 47 1042 l 47 52 l 1303 52 l 1303 1042 z m 1282 1019 l 1282 73 l 70 73 l 70 1019 z "},"©":{"ha":719,"x_min":0,"x_max":0,"o":"m 359 1093 b 144 1004 274 1093 203 1063 b 54 788 84 944 54 873 b 144 572 54 704 84 632 b 359 483 203 513 275 483 b 575 572 444 483 515 513 b 665 788 635 632 665 704 b 575 1004 665 873 635 944 b 359 1093 516 1063 444 1093 z m 359 618 b 480 667 413 618 452 641 l 432 715 b 359 686 411 696 387 686 b 257 788 303 686 257 732 b 359 890 257 844 304 890 b 431 860 387 890 411 880 l 480 908 b 359 958 450 936 412 958 l 359 959 b 189 788 265 959 189 880 b 359 618 189 695 265 618 z m 601 788 b 359 547 601 656 491 547 b 118 788 228 547 118 656 b 359 1030 118 921 228 1030 b 601 788 492 1030 601 921 z "},"«":{"ha":966,"x_min":0,"x_max":0,"o":"m 441 760 l 546 680 l 302 441 l 546 202 l 441 122 l 68 441 z m 793 760 l 899 680 l 655 441 l 899 202 l 793 122 l 420 441 z "},"¬":{"ha":1351,"x_min":0,"x_max":0,"o":"m 147 503 l 105 159 l 173 159 l 195 345 l 374 153 b 464 884 404 396 434 640 l 271 660 l 134 884 l 92 542 l 160 542 l 177 681 l 257 547 l 370 681 b 325 309 355 557 340 433 z m 573 652 l 612 722 l 633 652 z m 538 593 l 653 593 b 668 547 658 578 663 562 l 686 496 l 795 153 l 989 496 l 917 496 l 815 312 b 744 542 791 389 767 464 l 632 884 l 437 542 l 509 542 l 538 591 z m 768 541 l 836 541 l 852 673 l 922 541 l 1004 541 l 943 658 b 1025 755 986 673 1019 710 b 920 877 1035 827 992 877 l 811 877 l 797 760 b 768 541 788 686 778 613 z m 859 715 b 870 810 863 747 866 779 l 907 810 b 947 797 925 810 939 806 b 907 715 974 766 943 715 z m 1196 779 l 1263 779 b 1174 879 1270 835 1228 879 b 1059 779 1116 879 1065 831 b 1143 680 1052 718 1101 693 l 1143 677 b 1179 640 1160 668 1182 667 b 1141 606 1176 623 1160 606 b 1111 640 1122 606 1107 621 l 1042 640 b 1133 539 1035 583 1078 539 b 1247 640 1190 539 1240 587 b 1177 733 1252 694 1214 720 b 1139 751 1159 738 1155 739 b 1165 813 1112 771 1135 813 b 1196 779 1184 813 1196 799 z m 467 498 l 425 160 l 627 160 l 635 227 l 500 227 l 509 295 l 610 295 l 618 362 l 517 362 l 526 431 l 660 431 l 668 498 z m 47 1042 l 47 52 l 1303 52 l 1303 1042 z m 1282 1019 l 1282 73 l 70 73 l 70 1019 z "},"®":{"ha":719,"x_min":0,"x_max":0,"o":"m 359 1093 b 144 1004 274 1093 203 1063 b 54 788 84 944 54 873 b 144 572 54 704 84 632 b 359 483 203 513 275 483 b 575 572 444 483 515 513 b 665 788 635 632 665 704 b 575 1004 665 873 635 944 b 359 1093 516 1063 444 1093 z m 478 836 l 478 846 b 357 958 478 910 423 958 l 248 958 l 248 620 l 315 620 l 315 752 l 402 620 l 484 620 l 408 737 b 478 836 448 753 478 788 z m 408 844 b 363 795 408 817 389 795 l 315 795 l 315 890 l 353 890 b 408 844 387 890 408 874 z m 601 788 b 359 547 601 656 491 547 b 118 788 228 547 118 656 b 359 1030 118 921 228 1030 b 601 788 492 1030 601 921 z "},"¯":{"ha":1351,"x_min":0,"x_max":0,"o":"m 147 503 l 105 159 l 173 159 l 195 345 l 374 153 b 464 884 404 396 434 640 l 271 660 l 134 884 l 92 542 l 160 542 l 177 681 l 257 547 l 370 681 b 325 309 355 557 340 433 z m 573 652 l 612 722 l 633 652 z m 538 593 l 653 593 b 668 547 658 578 663 562 l 686 496 l 795 153 l 989 496 l 917 496 l 815 312 b 744 542 791 389 767 464 l 632 884 l 437 542 l 509 542 l 538 591 z m 768 541 l 836 541 l 852 673 l 922 541 l 1004 541 l 943 658 b 1025 755 986 673 1019 710 b 920 877 1035 827 992 877 l 811 877 l 797 760 b 768 541 788 686 778 613 z m 859 715 b 870 810 863 747 866 779 l 907 810 b 947 797 925 810 939 806 b 907 715 974 766 943 715 z m 1196 779 l 1263 779 b 1174 879 1270 835 1228 879 b 1059 779 1116 879 1065 831 b 1143 680 1052 718 1101 693 l 1143 677 b 1179 640 1160 668 1182 667 b 1141 606 1176 623 1160 606 b 1111 640 1122 606 1107 621 l 1042 640 b 1133 539 1035 583 1078 539 b 1247 640 1190 539 1240 587 b 1177 733 1252 694 1214 720 b 1139 751 1159 738 1155 739 b 1165 813 1112 771 1135 813 b 1196 779 1184 813 1196 799 z m 467 498 l 425 160 l 627 160 l 635 227 l 500 227 l 509 295 l 610 295 l 618 362 l 517 362 l 526 431 l 660 431 l 668 498 z m 47 1042 l 47 52 l 1303 52 l 1303 1042 z m 1282 1019 l 1282 73 l 70 73 l 70 1019 z "},"°":{"ha":464,"x_min":0,"x_max":0,"o":"m 326 1012 b 232 918 326 960 284 918 b 138 1012 180 918 138 960 b 232 1106 138 1063 181 1106 b 326 1012 283 1106 326 1063 z m 41 1011 b 232 820 41 907 128 820 b 423 1011 336 820 423 906 b 232 1203 423 1116 336 1203 b 41 1011 128 1203 41 1115 z "},"±":{"ha":1351,"x_min":0,"x_max":0,"o":"m 147 503 l 105 159 l 173 159 l 195 345 l 374 153 b 464 884 404 396 434 640 l 271 660 l 134 884 l 92 542 l 160 542 l 177 681 l 257 547 l 370 681 b 325 309 355 557 340 433 z m 573 652 l 612 722 l 633 652 z m 538 593 l 653 593 b 668 547 658 578 663 562 l 686 496 l 795 153 l 989 496 l 917 496 l 815 312 b 744 542 791 389 767 464 l 632 884 l 437 542 l 509 542 l 538 591 z m 768 541 l 836 541 l 852 673 l 922 541 l 1004 541 l 943 658 b 1025 755 986 673 1019 710 b 920 877 1035 827 992 877 l 811 877 l 797 760 b 768 541 788 686 778 613 z m 859 715 b 870 810 863 747 866 779 l 907 810 b 947 797 925 810 939 806 b 907 715 974 766 943 715 z m 1196 779 l 1263 779 b 1174 879 1270 835 1228 879 b 1059 779 1116 879 1065 831 b 1143 680 1052 718 1101 693 l 1143 677 b 1179 640 1160 668 1182 667 b 1141 606 1176 623 1160 606 b 1111 640 1122 606 1107 621 l 1042 640 b 1133 539 1035 583 1078 539 b 1247 640 1190 539 1240 587 b 1177 733 1252 694 1214 720 b 1139 751 1159 738 1155 739 b 1165 813 1112 771 1135 813 b 1196 779 1184 813 1196 799 z m 467 498 l 425 160 l 627 160 l 635 227 l 500 227 l 509 295 l 610 295 l 618 362 l 517 362 l 526 431 l 660 431 l 668 498 z m 47 1042 l 47 52 l 1303 52 l 1303 1042 z m 1282 1019 l 1282 73 l 70 73 l 70 1019 z "},"²":{"ha":1351,"x_min":0,"x_max":0,"o":"m 147 503 l 105 159 l 173 159 l 195 345 l 374 153 b 464 884 404 396 434 640 l 271 660 l 134 884 l 92 542 l 160 542 l 177 681 l 257 547 l 370 681 b 325 309 355 557 340 433 z m 573 652 l 612 722 l 633 652 z m 538 593 l 653 593 b 668 547 658 578 663 562 l 686 496 l 795 153 l 989 496 l 917 496 l 815 312 b 744 542 791 389 767 464 l 632 884 l 437 542 l 509 542 l 538 591 z m 768 541 l 836 541 l 852 673 l 922 541 l 1004 541 l 943 658 b 1025 755 986 673 1019 710 b 920 877 1035 827 992 877 l 811 877 l 797 760 b 768 541 788 686 778 613 z m 859 715 b 870 810 863 747 866 779 l 907 810 b 947 797 925 810 939 806 b 907 715 974 766 943 715 z m 1196 779 l 1263 779 b 1174 879 1270 835 1228 879 b 1059 779 1116 879 1065 831 b 1143 680 1052 718 1101 693 l 1143 677 b 1179 640 1160 668 1182 667 b 1141 606 1176 623 1160 606 b 1111 640 1122 606 1107 621 l 1042 640 b 1133 539 1035 583 1078 539 b 1247 640 1190 539 1240 587 b 1177 733 1252 694 1214 720 b 1139 751 1159 738 1155 739 b 1165 813 1112 771 1135 813 b 1196 779 1184 813 1196 799 z m 467 498 l 425 160 l 627 160 l 635 227 l 500 227 l 509 295 l 610 295 l 618 362 l 517 362 l 526 431 l 660 431 l 668 498 z m 47 1042 l 47 52 l 1303 52 l 1303 1042 z m 1282 1019 l 1282 73 l 70 73 l 70 1019 z "},"³":{"ha":1351,"x_min":0,"x_max":0,"o":"m 147 503 l 105 159 l 173 159 l 195 345 l 374 153 b 464 884 404 396 434 640 l 271 660 l 134 884 l 92 542 l 160 542 l 177 681 l 257 547 l 370 681 b 325 309 355 557 340 433 z m 573 652 l 612 722 l 633 652 z m 538 593 l 653 593 b 668 547 658 578 663 562 l 686 496 l 795 153 l 989 496 l 917 496 l 815 312 b 744 542 791 389 767 464 l 632 884 l 437 542 l 509 542 l 538 591 z m 768 541 l 836 541 l 852 673 l 922 541 l 1004 541 l 943 658 b 1025 755 986 673 1019 710 b 920 877 1035 827 992 877 l 811 877 l 797 760 b 768 541 788 686 778 613 z m 859 715 b 870 810 863 747 866 779 l 907 810 b 947 797 925 810 939 806 b 907 715 974 766 943 715 z m 1196 779 l 1263 779 b 1174 879 1270 835 1228 879 b 1059 779 1116 879 1065 831 b 1143 680 1052 718 1101 693 l 1143 677 b 1179 640 1160 668 1182 667 b 1141 606 1176 623 1160 606 b 1111 640 1122 606 1107 621 l 1042 640 b 1133 539 1035 583 1078 539 b 1247 640 1190 539 1240 587 b 1177 733 1252 694 1214 720 b 1139 751 1159 738 1155 739 b 1165 813 1112 771 1135 813 b 1196 779 1184 813 1196 799 z m 467 498 l 425 160 l 627 160 l 635 227 l 500 227 l 509 295 l 610 295 l 618 362 l 517 362 l 526 431 l 660 431 l 668 498 z m 47 1042 l 47 52 l 1303 52 l 1303 1042 z m 1282 1019 l 1282 73 l 70 73 l 70 1019 z "},"´":{"ha":1351,"x_min":0,"x_max":0,"o":"m 147 503 l 105 159 l 173 159 l 195 345 l 374 153 b 464 884 404 396 434 640 l 271 660 l 134 884 l 92 542 l 160 542 l 177 681 l 257 547 l 370 681 b 325 309 355 557 340 433 z m 573 652 l 612 722 l 633 652 z m 538 593 l 653 593 b 668 547 658 578 663 562 l 686 496 l 795 153 l 989 496 l 917 496 l 815 312 b 744 542 791 389 767 464 l 632 884 l 437 542 l 509 542 l 538 591 z m 768 541 l 836 541 l 852 673 l 922 541 l 1004 541 l 943 658 b 1025 755 986 673 1019 710 b 920 877 1035 827 992 877 l 811 877 l 797 760 b 768 541 788 686 778 613 z m 859 715 b 870 810 863 747 866 779 l 907 810 b 947 797 925 810 939 806 b 907 715 974 766 943 715 z m 1196 779 l 1263 779 b 1174 879 1270 835 1228 879 b 1059 779 1116 879 1065 831 b 1143 680 1052 718 1101 693 l 1143 677 b 1179 640 1160 668 1182 667 b 1141 606 1176 623 1160 606 b 1111 640 1122 606 1107 621 l 1042 640 b 1133 539 1035 583 1078 539 b 1247 640 1190 539 1240 587 b 1177 733 1252 694 1214 720 b 1139 751 1159 738 1155 739 b 1165 813 1112 771 1135 813 b 1196 779 1184 813 1196 799 z m 467 498 l 425 160 l 627 160 l 635 227 l 500 227 l 509 295 l 610 295 l 618 362 l 517 362 l 526 431 l 660 431 l 668 498 z m 47 1042 l 47 52 l 1303 52 l 1303 1042 z m 1282 1019 l 1282 73 l 70 73 l 70 1019 z "},"µ":{"ha":1351,"x_min":0,"x_max":0,"o":"m 147 503 l 105 159 l 173 159 l 195 345 l 374 153 b 464 884 404 396 434 640 l 271 660 l 134 884 l 92 542 l 160 542 l 177 681 l 257 547 l 370 681 b 325 309 355 557 340 433 z m 573 652 l 612 722 l 633 652 z m 538 593 l 653 593 b 668 547 658 578 663 562 l 686 496 l 795 153 l 989 496 l 917 496 l 815 312 b 744 542 791 389 767 464 l 632 884 l 437 542 l 509 542 l 538 591 z m 768 541 l 836 541 l 852 673 l 922 541 l 1004 541 l 943 658 b 1025 755 986 673 1019 710 b 920 877 1035 827 992 877 l 811 877 l 797 760 b 768 541 788 686 778 613 z m 859 715 b 870 810 863 747 866 779 l 907 810 b 947 797 925 810 939 806 b 907 715 974 766 943 715 z m 1196 779 l 1263 779 b 1174 879 1270 835 1228 879 b 1059 779 1116 879 1065 831 b 1143 680 1052 718 1101 693 l 1143 677 b 1179 640 1160 668 1182 667 b 1141 606 1176 623 1160 606 b 1111 640 1122 606 1107 621 l 1042 640 b 1133 539 1035 583 1078 539 b 1247 640 1190 539 1240 587 b 1177 733 1252 694 1214 720 b 1139 751 1159 738 1155 739 b 1165 813 1112 771 1135 813 b 1196 779 1184 813 1196 799 z m 467 498 l 425 160 l 627 160 l 635 227 l 500 227 l 509 295 l 610 295 l 618 362 l 517 362 l 526 431 l 660 431 l 668 498 z m 47 1042 l 47 52 l 1303 52 l 1303 1042 z m 1282 1019 l 1282 73 l 70 73 l 70 1019 z "},"¶":{"ha":1351,"x_min":0,"x_max":0,"o":"m 147 503 l 105 159 l 173 159 l 195 345 l 374 153 b 464 884 404 396 434 640 l 271 660 l 134 884 l 92 542 l 160 542 l 177 681 l 257 547 l 370 681 b 325 309 355 557 340 433 z m 573 652 l 612 722 l 633 652 z m 538 593 l 653 593 b 668 547 658 578 663 562 l 686 496 l 795 153 l 989 496 l 917 496 l 815 312 b 744 542 791 389 767 464 l 632 884 l 437 542 l 509 542 l 538 591 z m 768 541 l 836 541 l 852 673 l 922 541 l 1004 541 l 943 658 b 1025 755 986 673 1019 710 b 920 877 1035 827 992 877 l 811 877 l 797 760 b 768 541 788 686 778 613 z m 859 715 b 870 810 863 747 866 779 l 907 810 b 947 797 925 810 939 806 b 907 715 974 766 943 715 z m 1196 779 l 1263 779 b 1174 879 1270 835 1228 879 b 1059 779 1116 879 1065 831 b 1143 680 1052 718 1101 693 l 1143 677 b 1179 640 1160 668 1182 667 b 1141 606 1176 623 1160 606 b 1111 640 1122 606 1107 621 l 1042 640 b 1133 539 1035 583 1078 539 b 1247 640 1190 539 1240 587 b 1177 733 1252 694 1214 720 b 1139 751 1159 738 1155 739 b 1165 813 1112 771 1135 813 b 1196 779 1184 813 1196 799 z m 467 498 l 425 160 l 627 160 l 635 227 l 500 227 l 509 295 l 610 295 l 618 362 l 517 362 l 526 431 l 660 431 l 668 498 z m 47 1042 l 47 52 l 1303 52 l 1303 1042 z m 1282 1019 l 1282 73 l 70 73 l 70 1019 z "},"»":{"ha":966,"x_min":0,"x_max":0,"o":"m 525 760 l 420 680 l 664 441 l 420 202 l 525 122 l 899 441 z m 173 760 l 68 680 l 311 441 l 68 202 l 173 122 l 546 441 z "},"¼":{"ha":1351,"x_min":0,"x_max":0,"o":"m 147 503 l 105 159 l 173 159 l 195 345 l 374 153 b 464 884 404 396 434 640 l 271 660 l 134 884 l 92 542 l 160 542 l 177 681 l 257 547 l 370 681 b 325 309 355 557 340 433 z m 573 652 l 612 722 l 633 652 z m 538 593 l 653 593 b 668 547 658 578 663 562 l 686 496 l 795 153 l 989 496 l 917 496 l 815 312 b 744 542 791 389 767 464 l 632 884 l 437 542 l 509 542 l 538 591 z m 768 541 l 836 541 l 852 673 l 922 541 l 1004 541 l 943 658 b 1025 755 986 673 1019 710 b 920 877 1035 827 992 877 l 811 877 l 797 760 b 768 541 788 686 778 613 z m 859 715 b 870 810 863 747 866 779 l 907 810 b 947 797 925 810 939 806 b 907 715 974 766 943 715 z m 1196 779 l 1263 779 b 1174 879 1270 835 1228 879 b 1059 779 1116 879 1065 831 b 1143 680 1052 718 1101 693 l 1143 677 b 1179 640 1160 668 1182 667 b 1141 606 1176 623 1160 606 b 1111 640 1122 606 1107 621 l 1042 640 b 1133 539 1035 583 1078 539 b 1247 640 1190 539 1240 587 b 1177 733 1252 694 1214 720 b 1139 751 1159 738 1155 739 b 1165 813 1112 771 1135 813 b 1196 779 1184 813 1196 799 z m 467 498 l 425 160 l 627 160 l 635 227 l 500 227 l 509 295 l 610 295 l 618 362 l 517 362 l 526 431 l 660 431 l 668 498 z m 47 1042 l 47 52 l 1303 52 l 1303 1042 z m 1282 1019 l 1282 73 l 70 73 l 70 1019 z "},"½":{"ha":1351,"x_min":0,"x_max":0,"o":"m 147 503 l 105 159 l 173 159 l 195 345 l 374 153 b 464 884 404 396 434 640 l 271 660 l 134 884 l 92 542 l 160 542 l 177 681 l 257 547 l 370 681 b 325 309 355 557 340 433 z m 573 652 l 612 722 l 633 652 z m 538 593 l 653 593 b 668 547 658 578 663 562 l 686 496 l 795 153 l 989 496 l 917 496 l 815 312 b 744 542 791 389 767 464 l 632 884 l 437 542 l 509 542 l 538 591 z m 768 541 l 836 541 l 852 673 l 922 541 l 1004 541 l 943 658 b 1025 755 986 673 1019 710 b 920 877 1035 827 992 877 l 811 877 l 797 760 b 768 541 788 686 778 613 z m 859 715 b 870 810 863 747 866 779 l 907 810 b 947 797 925 810 939 806 b 907 715 974 766 943 715 z m 1196 779 l 1263 779 b 1174 879 1270 835 1228 879 b 1059 779 1116 879 1065 831 b 1143 680 1052 718 1101 693 l 1143 677 b 1179 640 1160 668 1182 667 b 1141 606 1176 623 1160 606 b 1111 640 1122 606 1107 621 l 1042 640 b 1133 539 1035 583 1078 539 b 1247 640 1190 539 1240 587 b 1177 733 1252 694 1214 720 b 1139 751 1159 738 1155 739 b 1165 813 1112 771 1135 813 b 1196 779 1184 813 1196 799 z m 467 498 l 425 160 l 627 160 l 635 227 l 500 227 l 509 295 l 610 295 l 618 362 l 517 362 l 526 431 l 660 431 l 668 498 z m 47 1042 l 47 52 l 1303 52 l 1303 1042 z m 1282 1019 l 1282 73 l 70 73 l 70 1019 z "},"¾":{"ha":1351,"x_min":0,"x_max":0,"o":"m 147 503 l 105 159 l 173 159 l 195 345 l 374 153 b 464 884 404 396 434 640 l 271 660 l 134 884 l 92 542 l 160 542 l 177 681 l 257 547 l 370 681 b 325 309 355 557 340 433 z m 573 652 l 612 722 l 633 652 z m 538 593 l 653 593 b 668 547 658 578 663 562 l 686 496 l 795 153 l 989 496 l 917 496 l 815 312 b 744 542 791 389 767 464 l 632 884 l 437 542 l 509 542 l 538 591 z m 768 541 l 836 541 l 852 673 l 922 541 l 1004 541 l 943 658 b 1025 755 986 673 1019 710 b 920 877 1035 827 992 877 l 811 877 l 797 760 b 768 541 788 686 778 613 z m 859 715 b 870 810 863 747 866 779 l 907 810 b 947 797 925 810 939 806 b 907 715 974 766 943 715 z m 1196 779 l 1263 779 b 1174 879 1270 835 1228 879 b 1059 779 1116 879 1065 831 b 1143 680 1052 718 1101 693 l 1143 677 b 1179 640 1160 668 1182 667 b 1141 606 1176 623 1160 606 b 1111 640 1122 606 1107 621 l 1042 640 b 1133 539 1035 583 1078 539 b 1247 640 1190 539 1240 587 b 1177 733 1252 694 1214 720 b 1139 751 1159 738 1155 739 b 1165 813 1112 771 1135 813 b 1196 779 1184 813 1196 799 z m 467 498 l 425 160 l 627 160 l 635 227 l 500 227 l 509 295 l 610 295 l 618 362 l 517 362 l 526 431 l 660 431 l 668 498 z m 47 1042 l 47 52 l 1303 52 l 1303 1042 z m 1282 1019 l 1282 73 l 70 73 l 70 1019 z "},"¿":{"ha":721,"x_min":0,"x_max":0,"o":"m 367 965 b 227 828 290 965 227 905 b 367 688 227 750 289 688 b 507 825 444 688 507 748 b 367 965 507 902 443 965 z m 361 58 b 250 170 301 58 250 110 b 287 242 250 189 262 213 b 356 317 310 271 333 296 b 452 440 398 359 430 400 b 486 602 475 480 486 534 l 486 621 l 263 621 b 233 468 277 555 267 504 b 125 357 199 432 163 395 b 56 277 100 334 77 307 b 27 170 37 248 27 212 b 125 -65 27 78 60 0 b 361 -163 190 -131 269 -163 b 595 -65 452 -163 530 -131 b 694 170 661 0 694 78 l 472 170 b 361 58 472 109 422 58 z "},"À":{"ha":1052,"x_min":0,"x_max":0,"o":"m 451 1508 l 323 1407 l 547 1199 l 626 1259 z m 27 0 l 264 0 l 338 166 l 713 166 l 787 0 l 1025 0 l 526 1116 z m 425 360 l 526 591 l 626 360 z "},"Á":{"ha":1052,"x_min":0,"x_max":0,"o":"m 601 1508 l 426 1259 l 505 1199 l 728 1407 z m 27 0 l 264 0 l 338 166 l 713 166 l 787 0 l 1025 0 l 526 1116 z m 425 360 l 526 591 l 626 360 z "},"Â":{"ha":1052,"x_min":0,"x_max":0,"o":"m 346 1186 l 456 1186 l 524 1293 l 593 1186 l 704 1186 l 524 1468 z m 27 0 l 264 0 l 338 166 l 713 166 l 787 0 l 1025 0 l 526 1116 z m 425 360 l 526 591 l 626 360 z "},"Ã":{"ha":1052,"x_min":0,"x_max":0,"o":"m 791 1192 l 793 1322 b 712 1260 764 1291 737 1270 b 558 1294 687 1250 635 1261 b 386 1332 474 1329 417 1342 b 291 1265 355 1323 323 1300 l 294 1144 b 389 1214 331 1182 362 1205 b 542 1187 415 1223 466 1214 b 699 1142 614 1161 666 1146 b 792 1191 731 1137 762 1154 z m 27 0 l 264 0 l 338 166 l 713 166 l 787 0 l 1025 0 l 526 1116 z m 425 360 l 526 591 l 626 360 z "},"Ä":{"ha":1052,"x_min":0,"x_max":0,"o":"m 601 1267 b 682 1186 601 1223 637 1186 b 764 1267 727 1186 764 1223 b 682 1350 764 1312 727 1350 b 601 1267 638 1350 601 1312 z m 27 0 l 264 0 l 338 166 l 713 166 l 787 0 l 1025 0 l 526 1116 z m 425 360 l 526 591 l 626 360 z m 295 1267 b 377 1186 295 1223 332 1186 b 458 1267 421 1186 458 1223 b 377 1350 458 1311 421 1350 b 295 1267 333 1350 295 1312 z "},"Å":{"ha":1047,"x_min":0,"x_max":0,"o":"m 372 1280 b 500 1152 372 1210 430 1152 b 629 1280 570 1152 629 1210 b 500 1409 629 1350 570 1409 b 372 1280 430 1409 372 1351 z m 500 1333 b 554 1280 536 1333 554 1315 b 500 1227 554 1244 536 1227 b 447 1280 465 1227 447 1244 b 500 1333 447 1315 465 1333 z m 0 0 l 237 0 l 311 166 l 686 166 l 760 0 l 998 0 l 498 1116 z m 398 360 l 499 591 l 599 360 z "},"Æ":{"ha":1385,"x_min":0,"x_max":0,"o":"m 338 168 l 696 168 l 699 163 l 699 0 l 1358 0 l 1358 219 l 919 219 l 919 439 l 1248 439 l 1248 659 l 919 659 l 919 879 l 1358 879 l 1358 1098 l 525 1098 l 27 3 l 264 3 b 338 168 288 58 315 112 z m 699 367 l 429 363 l 669 886 l 699 886 z "},"Ç":{"ha":1002,"x_min":0,"x_max":0,"o":"m 496 -2 b 445 -149 492 -59 475 -114 b 370 -219 408 -191 383 -215 l 349 -227 l 483 -365 l 538 -319 b 665 -2 607 -263 665 -139 b 797 35 711 4 755 16 b 975 154 865 64 924 103 l 818 310 b 582 212 752 245 673 212 b 347 309 490 212 412 245 b 250 545 282 375 250 453 b 347 780 250 635 282 714 b 582 878 411 845 490 878 b 817 780 673 878 752 845 l 974 937 b 581 1099 884 1026 750 1099 l 581 1102 b 190 939 428 1102 298 1048 b 27 545 81 829 27 698 b 190 154 27 392 81 262 b 496 -2 277 66 379 14 z "},"È":{"ha":754,"x_min":0,"x_max":0,"o":"m 225 1409 l 449 1201 l 528 1261 l 353 1510 z m 68 1099 l 68 0 l 727 0 l 727 220 l 288 220 l 288 439 l 617 439 l 617 659 l 288 659 l 288 879 l 727 879 l 727 1099 z "},"É":{"ha":754,"x_min":0,"x_max":0,"o":"m 68 1099 l 68 0 l 727 0 l 727 220 l 288 220 l 288 439 l 617 439 l 617 659 l 288 659 l 288 879 l 727 879 l 727 1099 z m 470 1510 l 295 1261 l 374 1201 l 597 1409 z "},"Ê":{"ha":754,"x_min":0,"x_max":0,"o":"m 68 1099 l 68 0 l 727 0 l 727 220 l 288 220 l 288 439 l 617 439 l 617 659 l 288 659 l 288 879 l 727 879 l 727 1099 z m 220 1189 l 331 1189 l 399 1296 l 468 1189 l 579 1189 l 399 1470 z "},"Ë":{"ha":754,"x_min":0,"x_max":0,"o":"m 161 1290 b 243 1208 161 1245 198 1208 b 324 1290 287 1208 324 1245 b 243 1372 324 1334 287 1372 b 161 1290 198 1372 161 1334 z m 465 1290 b 547 1208 465 1245 502 1208 b 629 1290 592 1208 629 1245 b 547 1372 629 1334 591 1372 b 465 1290 502 1372 465 1335 z m 68 1098 l 68 0 l 727 0 l 727 219 l 288 219 l 288 439 l 617 439 l 617 659 l 288 659 l 288 879 l 727 879 l 727 1098 z "},"Ì":{"ha":389,"x_min":0,"x_max":0,"o":"m 0 1409 l 224 1201 l 302 1261 l 127 1510 z m 102 0 l 321 0 l 321 1099 l 102 1099 z "},"Í":{"ha":399,"x_min":0,"x_max":0,"o":"m 68 0 l 288 0 l 288 1099 l 68 1099 z m 272 1510 l 97 1261 l 176 1201 l 399 1409 z "},"Î":{"ha":386,"x_min":0,"x_max":0,"o":"m 14 1189 l 124 1189 l 192 1296 l 261 1189 l 372 1189 l 192 1470 z m 83 0 l 303 0 l 303 1099 l 83 1099 z "},"Ï":{"ha":468,"x_min":0,"x_max":0,"o":"m 0 1290 b 81 1208 0 1245 37 1208 b 163 1290 126 1208 163 1245 b 81 1372 163 1334 126 1372 b 0 1290 37 1372 0 1334 z m 306 1290 b 387 1208 306 1245 342 1208 b 469 1290 432 1208 469 1245 b 387 1372 469 1334 431 1372 l 387 1372 b 306 1290 343 1372 306 1334 z m 119 0 l 339 0 l 339 1098 l 119 1098 z "},"Ð":{"ha":968,"x_min":0,"x_max":0,"o":"m 394 220 l 393 220 l 342 220 l 342 470 l 537 469 l 537 613 l 342 614 l 342 878 l 392 878 b 721 549 594 878 721 751 b 394 220 721 351 592 220 z m 393 1096 l 123 1096 l 123 614 l 27 614 l 27 470 l 123 470 l 123 0 l 393 0 b 795 161 553 0 687 54 b 941 547 892 258 941 387 b 795 935 941 707 892 836 b 393 1096 687 1042 553 1096 z "},"Ñ":{"ha":1001,"x_min":0,"x_max":0,"o":"m 721 1225 l 722 1356 b 642 1294 694 1325 667 1304 b 488 1328 616 1284 565 1295 b 315 1366 404 1363 346 1376 b 220 1299 285 1356 253 1334 l 224 1178 b 318 1248 261 1216 292 1239 b 471 1221 344 1257 395 1248 b 628 1176 543 1195 595 1180 b 722 1225 661 1171 692 1188 z m 61 1116 l 61 -2 l 281 -2 l 281 605 l 940 -22 l 940 1095 l 720 1095 l 720 488 z "},"Ò":{"ha":1165,"x_min":0,"x_max":0,"o":"m 355 1407 l 578 1199 l 657 1259 l 482 1508 z m 582 1102 b 190 938 429 1102 298 1047 b 27 546 81 829 27 699 b 190 154 27 393 81 262 b 582 -8 298 46 429 -8 b 974 154 735 -8 866 46 b 1138 546 1083 262 1138 393 b 974 938 1138 698 1083 829 b 582 1102 865 1047 734 1102 z m 582 880 b 817 783 673 880 751 848 b 915 547 882 717 915 638 b 817 312 915 456 882 377 b 582 215 751 247 672 215 b 347 312 490 215 411 247 b 249 547 281 378 249 456 b 347 783 249 637 281 716 b 582 880 411 848 489 880 z "},"Ó":{"ha":1165,"x_min":0,"x_max":0,"o":"m 627 1508 l 452 1259 l 530 1199 l 754 1407 z m 582 1102 b 190 938 429 1102 298 1047 b 27 546 81 828 27 698 b 190 154 27 394 81 263 b 582 -8 298 46 429 -8 b 975 154 735 -8 866 46 b 1138 546 1083 263 1138 394 b 975 938 1138 698 1083 829 b 582 1102 865 1047 734 1102 z m 582 880 b 817 783 673 880 751 848 b 915 547 882 717 915 638 b 817 312 915 456 882 377 b 582 215 751 247 672 215 b 347 312 490 215 412 247 b 249 547 281 378 249 456 b 347 783 249 637 281 716 b 582 880 412 848 490 880 z "},"Ô":{"ha":1165,"x_min":0,"x_max":0,"o":"m 401 1187 l 511 1187 l 579 1294 l 648 1187 l 759 1187 l 579 1468 z m 582 1102 b 190 938 429 1102 298 1047 b 27 546 81 828 27 698 b 190 154 27 394 81 263 b 582 -8 298 46 429 -8 b 974 154 735 -8 866 46 b 1138 546 1083 262 1138 393 b 974 938 1138 698 1083 829 b 582 1102 865 1047 734 1102 z m 582 880 b 817 783 673 880 751 848 b 915 547 882 717 915 638 b 817 312 915 456 882 377 b 582 215 751 247 672 215 b 347 312 490 215 412 247 b 249 547 281 378 249 456 b 347 783 249 637 281 716 b 582 880 412 848 490 880 z "},"Õ":{"ha":1164,"x_min":0,"x_max":0,"o":"m 838 1226 l 839 1357 b 758 1295 810 1326 783 1305 b 604 1329 732 1284 681 1296 b 431 1367 519 1364 461 1377 b 336 1300 400 1357 368 1335 l 340 1179 b 434 1249 376 1216 408 1239 b 587 1221 460 1258 511 1249 b 744 1176 659 1196 712 1181 b 838 1225 777 1172 808 1188 z m 582 1101 b 190 938 429 1101 298 1047 b 27 545 81 828 27 698 b 190 154 27 392 81 262 b 582 -8 298 46 429 -8 b 974 154 735 -8 866 46 b 1137 545 1083 262 1137 392 b 974 938 1137 698 1083 829 b 582 1101 865 1047 735 1101 z m 582 880 b 817 782 673 880 751 847 b 915 547 882 717 915 639 b 817 312 915 455 882 376 b 582 214 751 247 673 214 b 347 312 489 214 411 247 b 249 547 281 376 249 455 b 347 782 249 639 281 717 b 582 880 411 847 490 880 z "},"Ö":{"ha":1164,"x_min":0,"x_max":0,"o":"m 345 1288 b 427 1206 345 1243 382 1206 b 509 1288 472 1206 509 1243 b 427 1370 509 1332 471 1370 b 345 1288 382 1370 345 1332 z m 651 1288 b 732 1206 651 1243 688 1206 b 814 1288 777 1206 814 1243 b 732 1370 814 1332 776 1370 b 651 1288 688 1370 651 1332 z m 581 1101 b 190 938 428 1101 297 1047 b 27 545 81 828 27 698 b 190 154 27 392 81 262 b 581 -8 297 46 427 -8 b 974 154 734 -8 865 46 b 1137 545 1083 262 1137 392 b 974 938 1137 698 1083 829 b 581 1101 865 1047 734 1101 z m 581 880 b 816 782 672 880 750 847 b 915 547 882 716 915 638 b 816 312 915 455 882 376 b 581 214 751 247 673 214 b 346 312 489 214 411 247 b 249 547 281 377 249 455 b 346 782 249 638 281 716 b 581 880 411 847 490 880 z "},"×":{"ha":1389,"x_min":0,"x_max":0,"o":""},"Ø":{"ha":1164,"x_min":0,"x_max":0,"o":"m 740 1233 l 691 1090 b 582 1101 656 1097 619 1101 b 190 937 429 1101 298 1046 b 27 545 81 828 27 697 b 190 153 27 392 81 261 b 334 47 233 109 281 74 l 269 -139 l 441 -139 l 488 -1 b 582 -9 519 -6 551 -9 b 974 153 735 -9 866 45 b 1137 545 1083 261 1137 392 b 974 937 1137 698 1083 828 b 844 1036 935 977 891 1010 l 911 1233 z m 618 878 l 407 262 b 347 311 385 276 365 292 b 249 547 281 375 249 454 b 347 781 249 638 281 716 b 582 880 411 847 490 880 b 618 878 594 880 606 879 z m 562 214 l 770 821 b 817 781 784 812 799 798 b 915 547 882 716 915 638 b 817 311 915 454 882 375 b 582 214 751 246 673 214 b 562 214 573 214 567 214 z "},"Ù":{"ha":1006,"x_min":0,"x_max":0,"o":"m 315 1407 l 538 1198 l 617 1259 l 442 1507 z m 503 214 b 283 434 382 214 283 314 l 283 1096 l 61 1096 l 61 433 b 191 121 61 310 104 206 b 503 -8 276 35 381 -8 b 815 121 626 -8 730 35 b 945 433 902 206 945 310 l 945 1096 l 724 1096 l 724 434 b 503 214 724 314 622 214 z "},"Ú":{"ha":1006,"x_min":0,"x_max":0,"o":"m 559 1507 l 383 1259 l 463 1198 l 686 1407 z m 503 214 b 283 434 382 214 283 314 l 283 1096 l 61 1096 l 61 433 b 191 121 61 310 104 206 b 503 -8 276 35 381 -8 b 815 121 626 -8 730 35 b 945 433 902 206 945 310 l 945 1096 l 724 1096 l 724 434 b 503 214 724 314 622 214 z "},"Û":{"ha":1006,"x_min":0,"x_max":0,"o":"m 322 1186 l 433 1186 l 500 1293 l 570 1186 l 681 1186 l 500 1468 z m 503 214 b 283 434 382 214 283 314 l 283 1096 l 61 1096 l 61 433 b 191 121 61 310 104 206 b 503 -8 276 35 381 -8 b 815 121 626 -8 730 35 b 945 433 902 206 945 310 l 945 1096 l 724 1096 l 724 434 b 503 214 724 315 622 214 z "},"Ü":{"ha":1006,"x_min":0,"x_max":0,"o":"m 503 214 b 282 434 383 214 282 315 l 282 1095 l 61 1095 l 61 433 b 191 121 61 311 104 207 b 504 -8 277 35 381 -8 b 816 121 625 -8 729 35 b 945 433 902 207 945 311 l 945 1095 l 724 1095 l 724 434 b 503 214 724 316 622 214 z m 576 1287 b 657 1206 576 1242 612 1206 b 739 1287 702 1206 739 1242 b 657 1369 739 1331 702 1369 b 576 1287 613 1369 576 1331 z m 271 1287 b 353 1206 271 1242 308 1206 b 435 1287 398 1206 435 1243 b 353 1369 435 1331 397 1369 b 271 1287 309 1369 271 1331 z "},"Ý":{"ha":932,"x_min":0,"x_max":0,"o":"m 552 1510 l 376 1261 l 456 1201 l 680 1409 z m 27 1099 l 356 492 l 356 0 l 576 0 l 576 492 l 905 1099 l 655 1099 l 466 750 l 277 1099 z "},"Þ":{"ha":834,"x_min":0,"x_max":0,"o":"m 61 1093 l 61 0 l 280 0 l 280 188 l 448 188 b 702 293 547 188 632 223 b 807 547 772 363 807 448 b 702 800 807 646 772 730 b 448 905 632 870 547 905 l 280 905 l 280 1093 z m 605 547 b 448 390 605 460 533 390 l 280 390 l 280 704 l 448 704 b 605 547 534 704 605 633 z "},"ß":{"ha":1490,"x_min":0,"x_max":0,"o":"m 1113 212 b 985 323 1051 212 985 262 l 766 277 b 1113 -10 791 114 944 -10 b 1463 323 1297 -10 1463 139 b 1203 620 1463 475 1341 580 b 1003 767 1127 643 1003 669 b 1114 878 1003 828 1053 878 b 1224 768 1174 878 1224 828 l 1443 814 b 1113 1101 1420 976 1281 1101 b 779 768 928 1101 779 952 b 1030 464 779 619 896 510 b 1239 324 1105 438 1239 424 b 1112 213 1239 264 1172 213 z m 373 214 b 245 325 312 214 245 264 l 27 279 b 374 -8 52 116 205 -8 b 724 325 558 -8 724 141 b 464 622 724 477 602 582 b 263 769 388 645 263 671 b 375 880 263 830 314 880 b 485 770 435 880 485 830 l 703 816 b 373 1103 681 978 542 1103 b 40 770 189 1103 40 954 b 291 466 40 621 157 512 b 500 326 366 440 500 426 b 372 215 500 266 433 215 z "},"à":{"ha":1052,"x_min":0,"x_max":0,"o":"m 451 1508 l 323 1407 l 547 1199 l 626 1259 z m 27 0 l 264 0 l 338 166 l 713 166 l 787 0 l 1025 0 l 526 1116 z m 425 360 l 526 591 l 626 360 z "},"á":{"ha":1052,"x_min":0,"x_max":0,"o":"m 601 1508 l 426 1259 l 505 1199 l 728 1407 z m 27 0 l 264 0 l 338 166 l 713 166 l 787 0 l 1025 0 l 526 1116 z m 425 360 l 526 591 l 626 360 z "},"â":{"ha":1052,"x_min":0,"x_max":0,"o":"m 346 1186 l 456 1186 l 524 1293 l 593 1186 l 704 1186 l 524 1468 z m 27 0 l 264 0 l 338 166 l 713 166 l 787 0 l 1025 0 l 526 1116 z m 425 360 l 526 591 l 626 360 z "},"ã":{"ha":1052,"x_min":0,"x_max":0,"o":"m 791 1192 l 793 1322 b 712 1260 764 1291 737 1270 b 558 1294 687 1250 635 1261 b 386 1332 474 1329 417 1342 b 291 1265 355 1323 323 1300 l 294 1144 b 389 1214 331 1182 362 1205 b 542 1187 415 1223 466 1214 b 699 1142 614 1161 666 1146 b 792 1191 731 1137 762 1154 z m 27 0 l 264 0 l 338 166 l 713 166 l 787 0 l 1025 0 l 526 1116 z m 425 360 l 526 591 l 626 360 z "},"ä":{"ha":1052,"x_min":0,"x_max":0,"o":"m 601 1267 b 682 1186 601 1223 637 1186 b 764 1267 727 1186 764 1223 b 682 1350 764 1312 727 1350 b 601 1267 638 1350 601 1312 z m 27 0 l 264 0 l 338 166 l 713 166 l 787 0 l 1025 0 l 526 1116 z m 425 360 l 526 591 l 626 360 z m 295 1267 b 377 1186 295 1223 332 1186 b 458 1267 421 1186 458 1223 b 377 1350 458 1311 421 1350 b 295 1267 333 1350 295 1312 z "},"å":{"ha":1047,"x_min":0,"x_max":0,"o":"m 372 1280 b 500 1152 372 1210 430 1152 b 629 1280 570 1152 629 1210 b 500 1409 629 1350 570 1409 b 372 1280 430 1409 372 1351 z m 500 1333 b 554 1280 536 1333 554 1315 b 500 1227 554 1244 536 1227 b 447 1280 465 1227 447 1244 b 500 1333 447 1315 465 1333 z m 0 0 l 237 0 l 311 166 l 686 166 l 760 0 l 998 0 l 498 1116 z m 398 360 l 499 591 l 599 360 z "},"æ":{"ha":1385,"x_min":0,"x_max":0,"o":"m 338 168 l 696 168 l 699 163 l 699 0 l 1358 0 l 1358 219 l 919 219 l 919 439 l 1248 439 l 1248 659 l 919 659 l 919 879 l 1358 879 l 1358 1098 l 525 1098 l 27 3 l 264 3 b 338 168 288 58 315 112 z m 699 367 l 429 363 l 669 886 l 699 886 z "},"ç":{"ha":1002,"x_min":0,"x_max":0,"o":"m 496 -2 b 445 -149 492 -59 475 -114 b 370 -219 408 -191 383 -215 l 349 -227 l 483 -365 l 538 -319 b 665 -2 607 -263 665 -139 b 797 35 711 4 755 16 b 975 154 865 64 924 103 l 818 310 b 582 212 752 245 673 212 b 347 309 490 212 412 245 b 250 545 282 375 250 453 b 347 780 250 635 282 714 b 582 878 411 845 490 878 b 817 780 673 878 752 845 l 974 937 b 581 1099 884 1026 750 1099 l 581 1102 b 190 939 428 1102 298 1048 b 27 545 81 829 27 698 b 190 154 27 392 81 262 b 496 -2 277 66 379 14 z "},"è":{"ha":754,"x_min":0,"x_max":0,"o":"m 225 1409 l 449 1201 l 528 1261 l 353 1510 z m 68 1099 l 68 0 l 727 0 l 727 220 l 288 220 l 288 439 l 617 439 l 617 659 l 288 659 l 288 879 l 727 879 l 727 1099 z "},"é":{"ha":754,"x_min":0,"x_max":0,"o":"m 68 1099 l 68 0 l 727 0 l 727 220 l 288 220 l 288 439 l 617 439 l 617 659 l 288 659 l 288 879 l 727 879 l 727 1099 z m 470 1510 l 295 1261 l 374 1201 l 597 1409 z "},"ê":{"ha":754,"x_min":0,"x_max":0,"o":"m 68 1099 l 68 0 l 727 0 l 727 220 l 288 220 l 288 439 l 617 439 l 617 659 l 288 659 l 288 879 l 727 879 l 727 1099 z m 220 1189 l 331 1189 l 399 1296 l 468 1189 l 579 1189 l 399 1470 z "},"ë":{"ha":754,"x_min":0,"x_max":0,"o":"m 161 1290 b 243 1208 161 1245 198 1208 b 324 1290 287 1208 324 1245 b 243 1372 324 1334 287 1372 b 161 1290 198 1372 161 1334 z m 465 1290 b 547 1208 465 1245 502 1208 b 629 1290 592 1208 629 1245 b 547 1372 629 1334 591 1372 b 465 1290 502 1372 465 1335 z m 68 1098 l 68 0 l 727 0 l 727 219 l 288 219 l 288 439 l 617 439 l 617 659 l 288 659 l 288 879 l 727 879 l 727 1098 z "},"ì":{"ha":389,"x_min":0,"x_max":0,"o":"m 0 1409 l 224 1201 l 302 1261 l 127 1510 z m 102 0 l 321 0 l 321 1099 l 102 1099 z "},"í":{"ha":399,"x_min":0,"x_max":0,"o":"m 68 0 l 288 0 l 288 1099 l 68 1099 z m 272 1510 l 97 1261 l 176 1201 l 399 1409 z "},"î":{"ha":386,"x_min":0,"x_max":0,"o":"m 14 1189 l 124 1189 l 192 1296 l 261 1189 l 372 1189 l 192 1470 z m 83 0 l 303 0 l 303 1099 l 83 1099 z "},"ï":{"ha":468,"x_min":0,"x_max":0,"o":"m 0 1290 b 81 1208 0 1245 37 1208 b 163 1290 126 1208 163 1245 b 81 1372 163 1334 126 1372 b 0 1290 37 1372 0 1334 z m 306 1290 b 387 1208 306 1245 342 1208 b 469 1290 432 1208 469 1245 b 387 1372 469 1334 431 1372 l 387 1372 b 306 1290 343 1372 306 1334 z m 119 0 l 339 0 l 339 1098 l 119 1098 z "},"ð":{"ha":968,"x_min":0,"x_max":0,"o":"m 394 220 l 393 220 l 342 220 l 342 470 l 537 469 l 537 613 l 342 614 l 342 878 l 392 878 b 721 549 594 878 721 751 b 394 220 721 351 592 220 z m 393 1096 l 123 1096 l 123 614 l 27 614 l 27 470 l 123 470 l 123 0 l 393 0 b 795 161 553 0 687 54 b 941 547 892 258 941 387 b 795 935 941 707 892 836 b 393 1096 687 1042 553 1096 z "},"ñ":{"ha":1001,"x_min":0,"x_max":0,"o":"m 721 1225 l 722 1356 b 642 1294 694 1325 667 1304 b 488 1328 616 1284 565 1295 b 315 1366 404 1363 346 1376 b 220 1299 285 1356 253 1334 l 224 1178 b 318 1248 261 1216 292 1239 b 471 1221 344 1257 395 1248 b 628 1176 543 1195 595 1180 b 722 1225 661 1171 692 1188 z m 61 1116 l 61 -2 l 281 -2 l 281 605 l 940 -22 l 940 1095 l 720 1095 l 720 488 z "},"ò":{"ha":1165,"x_min":0,"x_max":0,"o":"m 355 1407 l 578 1199 l 657 1259 l 482 1508 z m 582 1102 b 190 938 429 1102 298 1047 b 27 546 81 829 27 699 b 190 154 27 393 81 262 b 582 -8 298 46 429 -8 b 974 154 735 -8 866 46 b 1138 546 1083 262 1138 393 b 974 938 1138 698 1083 829 b 582 1102 865 1047 734 1102 z m 582 880 b 817 783 673 880 751 848 b 915 547 882 717 915 638 b 817 312 915 456 882 377 b 582 215 751 247 672 215 b 347 312 490 215 411 247 b 249 547 281 378 249 456 b 347 783 249 637 281 716 b 582 880 411 848 489 880 z "},"ó":{"ha":1165,"x_min":0,"x_max":0,"o":"m 627 1508 l 452 1259 l 530 1199 l 754 1407 z m 582 1102 b 190 938 429 1102 298 1047 b 27 546 81 828 27 698 b 190 154 27 394 81 263 b 582 -8 298 46 429 -8 b 975 154 735 -8 866 46 b 1138 546 1083 263 1138 394 b 975 938 1138 698 1083 829 b 582 1102 865 1047 734 1102 z m 582 880 b 817 783 673 880 751 848 b 915 547 882 717 915 638 b 817 312 915 456 882 377 b 582 215 751 247 672 215 b 347 312 490 215 412 247 b 249 547 281 378 249 456 b 347 783 249 637 281 716 b 582 880 412 848 490 880 z "},"ô":{"ha":1165,"x_min":0,"x_max":0,"o":"m 401 1187 l 511 1187 l 579 1294 l 648 1187 l 759 1187 l 579 1468 z m 582 1102 b 190 938 429 1102 298 1047 b 27 546 81 828 27 698 b 190 154 27 394 81 263 b 582 -8 298 46 429 -8 b 974 154 735 -8 866 46 b 1138 546 1083 262 1138 393 b 974 938 1138 698 1083 829 b 582 1102 865 1047 734 1102 z m 582 880 b 817 783 673 880 751 848 b 915 547 882 717 915 638 b 817 312 915 456 882 377 b 582 215 751 247 672 215 b 347 312 490 215 412 247 b 249 547 281 378 249 456 b 347 783 249 637 281 716 b 582 880 412 848 490 880 z "},"õ":{"ha":1164,"x_min":0,"x_max":0,"o":"m 838 1226 l 839 1357 b 758 1295 810 1326 783 1305 b 604 1329 732 1284 681 1296 b 431 1367 519 1364 461 1377 b 336 1300 400 1357 368 1335 l 340 1179 b 434 1249 376 1216 408 1239 b 587 1221 460 1258 511 1249 b 744 1176 659 1196 712 1181 b 838 1225 777 1172 808 1188 z m 582 1101 b 190 938 429 1101 298 1047 b 27 545 81 828 27 698 b 190 154 27 392 81 262 b 582 -8 298 46 429 -8 b 974 154 735 -8 866 46 b 1137 545 1083 262 1137 392 b 974 938 1137 698 1083 829 b 582 1101 865 1047 735 1101 z m 582 880 b 817 782 673 880 751 847 b 915 547 882 717 915 639 b 817 312 915 455 882 376 b 582 214 751 247 673 214 b 347 312 489 214 411 247 b 249 547 281 376 249 455 b 347 782 249 639 281 717 b 582 880 411 847 490 880 z "},"ö":{"ha":1164,"x_min":0,"x_max":0,"o":"m 345 1288 b 427 1206 345 1243 382 1206 b 509 1288 472 1206 509 1243 b 427 1370 509 1332 471 1370 b 345 1288 382 1370 345 1332 z m 651 1288 b 732 1206 651 1243 688 1206 b 814 1288 777 1206 814 1243 b 732 1370 814 1332 776 1370 b 651 1288 688 1370 651 1332 z m 581 1101 b 190 938 428 1101 297 1047 b 27 545 81 828 27 698 b 190 154 27 392 81 262 b 581 -8 297 46 427 -8 b 974 154 734 -8 865 46 b 1137 545 1083 262 1137 392 b 974 938 1137 698 1083 829 b 581 1101 865 1047 734 1101 z m 581 880 b 816 782 672 880 750 847 b 915 547 882 716 915 638 b 816 312 915 455 882 376 b 581 214 751 247 673 214 b 346 312 489 214 411 247 b 249 547 281 377 249 455 b 346 782 249 638 281 716 b 581 880 411 847 490 880 z "},"÷":{"ha":1351,"x_min":0,"x_max":0,"o":"m 147 503 l 105 159 l 173 159 l 195 345 l 374 153 b 464 884 404 396 434 640 l 271 660 l 134 884 l 92 542 l 160 542 l 177 681 l 257 547 l 370 681 b 325 309 355 557 340 433 z m 573 652 l 612 722 l 633 652 z m 538 593 l 653 593 b 668 547 658 578 663 562 l 686 496 l 795 153 l 989 496 l 917 496 l 815 312 b 744 542 791 389 767 464 l 632 884 l 437 542 l 509 542 l 538 591 z m 768 541 l 836 541 l 852 673 l 922 541 l 1004 541 l 943 658 b 1025 755 986 673 1019 710 b 920 877 1035 827 992 877 l 811 877 l 797 760 b 768 541 788 686 778 613 z m 859 715 b 870 810 863 747 866 779 l 907 810 b 947 797 925 810 939 806 b 907 715 974 766 943 715 z m 1196 779 l 1263 779 b 1174 879 1270 835 1228 879 b 1059 779 1116 879 1065 831 b 1143 680 1052 718 1101 693 l 1143 677 b 1179 640 1160 668 1182 667 b 1141 606 1176 623 1160 606 b 1111 640 1122 606 1107 621 l 1042 640 b 1133 539 1035 583 1078 539 b 1247 640 1190 539 1240 587 b 1177 733 1252 694 1214 720 b 1139 751 1159 738 1155 739 b 1165 813 1112 771 1135 813 b 1196 779 1184 813 1196 799 z m 467 498 l 425 160 l 627 160 l 635 227 l 500 227 l 509 295 l 610 295 l 618 362 l 517 362 l 526 431 l 660 431 l 668 498 z m 47 1042 l 47 52 l 1303 52 l 1303 1042 z m 1282 1019 l 1282 73 l 70 73 l 70 1019 z "},"ø":{"ha":1164,"x_min":0,"x_max":0,"o":"m 740 1233 l 691 1090 b 582 1101 656 1097 619 1101 b 190 937 429 1101 298 1046 b 27 545 81 828 27 697 b 190 153 27 392 81 261 b 334 47 233 109 281 74 l 269 -139 l 441 -139 l 488 -1 b 582 -9 519 -6 551 -9 b 974 153 735 -9 866 45 b 1137 545 1083 261 1137 392 b 974 937 1137 698 1083 828 b 844 1036 935 977 891 1010 l 911 1233 z m 618 878 l 407 262 b 347 311 385 276 365 292 b 249 547 281 375 249 454 b 347 781 249 638 281 716 b 582 880 411 847 490 880 b 618 878 594 880 606 879 z m 562 214 l 770 821 b 817 781 784 812 799 798 b 915 547 882 716 915 638 b 817 311 915 454 882 375 b 582 214 751 246 673 214 b 562 214 573 214 567 214 z "},"ù":{"ha":1006,"x_min":0,"x_max":0,"o":"m 315 1407 l 538 1198 l 617 1259 l 442 1507 z m 503 214 b 283 434 382 214 283 314 l 283 1096 l 61 1096 l 61 433 b 191 121 61 310 104 206 b 503 -8 276 35 381 -8 b 815 121 626 -8 730 35 b 945 433 902 206 945 310 l 945 1096 l 724 1096 l 724 434 b 503 214 724 314 622 214 z "},"ú":{"ha":1006,"x_min":0,"x_max":0,"o":"m 559 1507 l 383 1259 l 463 1198 l 686 1407 z m 503 214 b 283 434 382 214 283 314 l 283 1096 l 61 1096 l 61 433 b 191 121 61 310 104 206 b 503 -8 276 35 381 -8 b 815 121 626 -8 730 35 b 945 433 902 206 945 310 l 945 1096 l 724 1096 l 724 434 b 503 214 724 314 622 214 z "},"û":{"ha":1006,"x_min":0,"x_max":0,"o":"m 322 1186 l 433 1186 l 500 1293 l 570 1186 l 681 1186 l 500 1468 z m 503 214 b 283 434 382 214 283 314 l 283 1096 l 61 1096 l 61 433 b 191 121 61 310 104 206 b 503 -8 276 35 381 -8 b 815 121 626 -8 730 35 b 945 433 902 206 945 310 l 945 1096 l 724 1096 l 724 434 b 503 214 724 315 622 214 z "},"ü":{"ha":1006,"x_min":0,"x_max":0,"o":"m 503 214 b 282 434 383 214 282 315 l 282 1095 l 61 1095 l 61 433 b 191 121 61 311 104 207 b 504 -8 277 35 381 -8 b 816 121 625 -8 729 35 b 945 433 902 207 945 311 l 945 1095 l 724 1095 l 724 434 b 503 214 724 316 622 214 z m 576 1287 b 657 1206 576 1242 612 1206 b 739 1287 702 1206 739 1242 b 657 1369 739 1331 702 1369 b 576 1287 613 1369 576 1331 z m 271 1287 b 353 1206 271 1242 308 1206 b 435 1287 398 1206 435 1243 b 353 1369 435 1331 397 1369 b 271 1287 309 1369 271 1331 z "},"ý":{"ha":932,"x_min":0,"x_max":0,"o":"m 552 1510 l 376 1261 l 456 1201 l 680 1409 z m 27 1099 l 356 492 l 356 0 l 576 0 l 576 492 l 905 1099 l 655 1099 l 466 750 l 277 1099 z "},"þ":{"ha":834,"x_min":0,"x_max":0,"o":"m 61 1093 l 61 0 l 280 0 l 280 188 l 448 188 b 702 293 547 188 632 223 b 807 547 772 363 807 448 b 702 800 807 646 772 730 b 448 905 632 870 547 905 l 280 905 l 280 1093 z m 605 547 b 448 390 605 460 533 390 l 280 390 l 280 704 l 448 704 b 605 547 534 704 605 633 z "},"ÿ":{"ha":932,"x_min":0,"x_max":0,"o":"m 27 1099 l 356 492 l 356 0 l 576 0 l 576 492 l 905 1099 l 655 1099 l 466 750 l 277 1099 z m 537 1287 b 618 1206 537 1242 574 1206 b 700 1287 663 1206 700 1243 b 618 1369 700 1331 662 1369 b 537 1287 574 1369 537 1332 z m 233 1287 b 314 1206 233 1242 269 1206 b 396 1287 359 1206 396 1242 b 314 1369 396 1331 358 1369 b 233 1287 269 1369 233 1331 z "},"Ā":{"ha":1052,"x_min":0,"x_max":0,"o":"m 723 1310 l 328 1310 l 328 1200 l 723 1200 z m 27 0 l 264 0 l 338 166 l 713 166 l 787 0 l 1025 0 l 526 1116 z m 425 360 l 526 591 l 626 360 z "},"ā":{"ha":1052,"x_min":0,"x_max":0,"o":"m 723 1310 l 328 1310 l 328 1200 l 723 1200 z m 27 0 l 264 0 l 338 166 l 713 166 l 787 0 l 1025 0 l 526 1116 z m 425 360 l 526 591 l 626 360 z "},"Ă":{"ha":1052,"x_min":0,"x_max":0,"o":"m 526 1310 b 431 1405 474 1310 431 1353 l 329 1405 b 526 1208 329 1297 418 1208 b 723 1405 634 1208 723 1297 l 621 1405 b 526 1310 621 1353 578 1310 z m 27 0 l 264 0 l 338 166 l 713 166 l 787 0 l 1025 0 l 526 1116 z m 425 360 l 526 591 l 626 360 z "},"ă":{"ha":1052,"x_min":0,"x_max":0,"o":"m 526 1310 b 431 1405 474 1310 431 1353 l 329 1405 b 526 1208 329 1297 418 1208 b 723 1405 634 1208 723 1297 l 621 1405 b 526 1310 621 1353 578 1310 z m 27 0 l 264 0 l 338 166 l 713 166 l 787 0 l 1025 0 l 526 1116 z m 425 360 l 526 591 l 626 360 z "},"Ą":{"ha":1052,"x_min":0,"x_max":0,"o":"m 429 360 l 526 588 l 623 360 z m 1025 0 l 526 1116 l 27 0 l 264 0 b 338 166 289 56 315 109 l 713 166 b 787 0 737 111 762 55 l 793 0 b 703 -171 747 -38 706 -92 b 746 -300 701 -230 715 -273 b 956 -360 796 -343 871 -367 b 1006 -355 989 -357 1005 -355 l 982 -203 b 918 -208 982 -203 960 -205 b 857 -176 876 -211 855 -200 b 942 -54 858 -130 887 -89 b 1025 0 997 -18 1024 0 z "},"ą":{"ha":1052,"x_min":0,"x_max":0,"o":"m 429 360 l 526 588 l 623 360 z m 1025 0 l 526 1116 l 27 0 l 264 0 b 338 166 289 56 315 109 l 713 166 b 787 0 737 111 762 55 l 793 0 b 703 -171 747 -38 706 -92 b 746 -300 701 -230 715 -273 b 956 -360 796 -343 871 -367 b 1006 -355 989 -357 1005 -355 l 982 -203 b 918 -208 982 -203 960 -205 b 857 -176 876 -211 855 -200 b 942 -54 858 -130 887 -89 b 1025 0 997 -18 1024 0 z "},"Ć":{"ha":1002,"x_min":0,"x_max":0,"o":"m 975 154 l 818 311 b 582 213 753 245 674 213 b 347 310 490 213 412 245 b 250 545 282 375 250 453 b 347 781 250 636 282 715 b 582 878 411 846 490 878 b 817 781 673 878 751 846 l 974 937 b 581 1099 884 1024 749 1099 l 581 1102 b 190 939 429 1102 299 1048 b 27 546 81 829 27 698 b 190 154 27 393 81 262 b 581 -7 298 47 428 -7 b 975 154 752 -7 885 65 z m 622 1510 l 447 1261 l 526 1201 l 749 1409 z "},"ć":{"ha":1002,"x_min":0,"x_max":0,"o":"m 975 154 l 818 311 b 582 213 753 245 674 213 b 347 310 490 213 412 245 b 250 545 282 375 250 453 b 347 781 250 636 282 715 b 582 878 411 846 490 878 b 817 781 673 878 751 846 l 974 937 b 581 1099 884 1024 749 1099 l 581 1102 b 190 939 429 1102 299 1048 b 27 546 81 829 27 698 b 190 154 27 393 81 262 b 581 -7 298 47 428 -7 b 975 154 752 -7 885 65 z m 622 1510 l 447 1261 l 526 1201 l 749 1409 z "},"Č":{"ha":1002,"x_min":0,"x_max":0,"o":"m 975 154 l 818 311 b 582 213 753 245 674 213 b 347 310 490 213 412 245 b 250 545 282 375 250 453 b 347 781 250 636 282 715 b 582 878 411 846 490 878 b 817 781 673 878 751 846 l 974 937 b 581 1099 884 1024 749 1099 l 581 1102 b 190 939 429 1102 299 1048 b 27 546 81 829 27 698 b 190 154 27 393 81 262 b 581 -7 298 47 428 -7 b 975 154 752 -7 885 65 z m 361 1463 l 540 1181 l 720 1463 l 608 1463 l 540 1356 l 471 1463 z "},"č":{"ha":1002,"x_min":0,"x_max":0,"o":"m 975 154 l 818 311 b 582 213 753 245 674 213 b 347 310 490 213 412 245 b 250 545 282 375 250 453 b 347 781 250 636 282 715 b 582 878 411 846 490 878 b 817 781 673 878 751 846 l 974 937 b 581 1099 884 1024 749 1099 l 581 1102 b 190 939 429 1102 299 1048 b 27 546 81 829 27 698 b 190 154 27 393 81 262 b 581 -7 298 47 428 -7 b 975 154 752 -7 885 65 z m 361 1463 l 540 1181 l 720 1463 l 608 1463 l 540 1356 l 471 1463 z "},"Ď":{"ha":925,"x_min":0,"x_max":0,"o":"m 214 1463 l 392 1181 l 572 1463 l 461 1463 l 392 1356 l 324 1463 z m 352 1093 l 61 1093 l 61 0 l 352 0 b 751 160 511 0 644 53 b 898 546 849 257 898 386 b 751 932 898 705 849 834 b 352 1093 658 1025 524 1093 z m 679 547 b 353 219 679 350 550 219 l 280 219 l 280 876 l 351 876 b 679 547 548 876 679 743 z "},"ď":{"ha":925,"x_min":0,"x_max":0,"o":"m 214 1463 l 392 1181 l 572 1463 l 461 1463 l 392 1356 l 324 1463 z m 352 1093 l 61 1093 l 61 0 l 352 0 b 751 160 511 0 644 53 b 898 546 849 257 898 386 b 751 932 898 705 849 834 b 352 1093 658 1025 524 1093 z m 679 547 b 353 219 679 350 550 219 l 280 219 l 280 876 l 351 876 b 679 547 548 876 679 743 z "},"Đ":{"ha":968,"x_min":0,"x_max":0,"o":"m 394 220 l 393 220 l 342 220 l 342 470 l 537 469 l 537 613 l 342 614 l 342 878 l 392 878 b 721 549 594 878 721 751 b 394 220 721 351 592 220 z m 393 1096 l 123 1096 l 123 614 l 27 614 l 27 470 l 123 470 l 123 0 l 393 0 b 795 161 553 0 687 54 b 941 547 892 258 941 387 b 795 935 941 707 892 836 b 393 1096 687 1042 553 1096 z "},"đ":{"ha":968,"x_min":0,"x_max":0,"o":"m 394 220 l 393 220 l 342 220 l 342 470 l 537 469 l 537 613 l 342 614 l 342 878 l 392 878 b 721 549 594 878 721 751 b 394 220 721 351 592 220 z m 393 1096 l 123 1096 l 123 614 l 27 614 l 27 470 l 123 470 l 123 0 l 393 0 b 795 161 553 0 687 54 b 941 547 892 258 941 387 b 795 935 941 707 892 836 b 393 1096 687 1042 553 1096 z "},"Ē":{"ha":754,"x_min":0,"x_max":0,"o":"m 68 1098 l 68 0 l 727 0 l 727 219 l 288 219 l 288 439 l 617 439 l 617 659 l 288 659 l 288 879 l 727 879 l 727 1098 z m 595 1310 l 200 1310 l 200 1200 l 595 1200 z "},"ē":{"ha":754,"x_min":0,"x_max":0,"o":"m 68 1098 l 68 0 l 727 0 l 727 219 l 288 219 l 288 439 l 617 439 l 617 659 l 288 659 l 288 879 l 727 879 l 727 1098 z m 595 1310 l 200 1310 l 200 1200 l 595 1200 z "},"Ĕ":{"ha":754,"x_min":0,"x_max":0,"o":"m 68 1098 l 68 0 l 727 0 l 727 219 l 288 219 l 288 439 l 617 439 l 617 659 l 288 659 l 288 879 l 727 879 l 727 1098 z m 397 1310 b 302 1405 345 1310 302 1353 l 200 1405 b 397 1208 200 1297 289 1208 b 595 1405 505 1208 595 1297 l 492 1405 b 397 1310 492 1354 449 1310 z "},"ĕ":{"ha":754,"x_min":0,"x_max":0,"o":"m 68 1098 l 68 0 l 727 0 l 727 219 l 288 219 l 288 439 l 617 439 l 617 659 l 288 659 l 288 879 l 727 879 l 727 1098 z m 397 1310 b 302 1405 345 1310 302 1353 l 200 1405 b 397 1208 200 1297 289 1208 b 595 1405 505 1208 595 1297 l 492 1405 b 397 1310 492 1354 449 1310 z "},"Ė":{"ha":754,"x_min":0,"x_max":0,"o":"m 68 1098 l 68 0 l 727 0 l 727 219 l 288 219 l 288 439 l 617 439 l 617 659 l 288 659 l 288 879 l 727 879 l 727 1098 z m 302 1297 b 397 1202 302 1244 344 1202 b 492 1297 450 1202 492 1245 b 397 1393 492 1349 449 1393 b 302 1297 345 1393 302 1350 z "},"ė":{"ha":754,"x_min":0,"x_max":0,"o":"m 68 1098 l 68 0 l 727 0 l 727 219 l 288 219 l 288 439 l 617 439 l 617 659 l 288 659 l 288 879 l 727 879 l 727 1098 z m 302 1297 b 397 1202 302 1244 344 1202 b 492 1297 450 1202 492 1245 b 397 1393 492 1349 449 1393 b 302 1297 345 1393 302 1350 z "},"Ę":{"ha":754,"x_min":0,"x_max":0,"o":"m 68 1098 l 68 0 l 495 0 b 405 -171 450 -38 408 -92 b 448 -300 402 -230 416 -273 b 659 -360 498 -343 573 -367 b 708 -355 691 -357 708 -355 l 684 -203 l 620 -208 b 559 -176 578 -211 557 -200 b 644 -54 560 -130 588 -89 b 727 0 699 -18 727 0 l 727 219 l 288 219 l 288 439 l 617 439 l 617 659 l 288 659 l 288 879 l 727 879 l 727 1098 z "},"ę":{"ha":754,"x_min":0,"x_max":0,"o":"m 68 1098 l 68 0 l 495 0 b 405 -171 450 -38 408 -92 b 448 -300 402 -230 416 -273 b 659 -360 498 -343 573 -367 b 708 -355 691 -357 708 -355 l 684 -203 l 620 -208 b 559 -176 578 -211 557 -200 b 644 -54 560 -130 588 -89 b 727 0 699 -18 727 0 l 727 219 l 288 219 l 288 439 l 617 439 l 617 659 l 288 659 l 288 879 l 727 879 l 727 1098 z "},"Ě":{"ha":754,"x_min":0,"x_max":0,"o":"m 220 1463 l 399 1181 l 579 1463 l 468 1463 l 399 1356 l 331 1463 z m 68 1098 l 68 0 l 727 0 l 727 219 l 288 219 l 288 439 l 617 439 l 617 659 l 288 659 l 288 879 l 727 879 l 727 1098 z "},"ě":{"ha":754,"x_min":0,"x_max":0,"o":"m 220 1463 l 399 1181 l 579 1463 l 468 1463 l 399 1356 l 331 1463 z m 68 1098 l 68 0 l 727 0 l 727 219 l 288 219 l 288 439 l 617 439 l 617 659 l 288 659 l 288 879 l 727 879 l 727 1098 z "},"Ğ":{"ha":1162,"x_min":0,"x_max":0,"o":"m 581 1103 b 190 940 428 1103 297 1049 b 27 548 81 831 27 700 b 190 155 27 394 81 263 b 581 -7 297 47 427 -7 b 973 155 733 -7 864 47 b 1132 615 1081 262 1148 411 l 571 615 l 571 406 l 883 406 b 583 214 835 303 725 214 b 348 312 491 214 413 247 b 251 548 283 377 251 456 b 348 783 251 639 283 718 b 583 881 413 848 491 881 b 818 783 674 881 752 848 l 974 939 b 582 1101 885 1027 751 1101 z m 581 1310 b 486 1405 528 1310 486 1353 l 384 1405 b 581 1208 384 1297 473 1208 b 778 1405 689 1208 778 1297 l 676 1405 b 581 1310 676 1354 633 1310 z "},"ğ":{"ha":1162,"x_min":0,"x_max":0,"o":"m 581 1103 b 190 940 428 1103 297 1049 b 27 548 81 831 27 700 b 190 155 27 394 81 263 b 581 -7 297 47 427 -7 b 973 155 733 -7 864 47 b 1132 615 1081 262 1148 411 l 571 615 l 571 406 l 883 406 b 583 214 835 303 725 214 b 348 312 491 214 413 247 b 251 548 283 377 251 456 b 348 783 251 639 283 718 b 583 881 413 848 491 881 b 818 783 674 881 752 848 l 974 939 b 582 1101 885 1027 751 1101 z m 581 1310 b 486 1405 528 1310 486 1353 l 384 1405 b 581 1208 384 1297 473 1208 b 778 1405 689 1208 778 1297 l 676 1405 b 581 1310 676 1354 633 1310 z "},"Ģ":{"ha":1162,"x_min":0,"x_max":0,"o":"m 581 1103 b 190 940 428 1103 297 1049 b 27 548 81 831 27 700 b 190 155 27 394 81 263 b 581 -7 297 47 427 -7 b 973 155 733 -7 864 47 b 1132 615 1081 262 1148 411 l 571 615 l 571 406 l 883 406 b 583 214 835 303 725 214 b 348 312 491 214 413 247 b 251 548 283 377 251 456 b 348 783 251 639 283 718 b 583 881 413 848 491 881 b 818 783 674 881 752 848 l 974 939 b 582 1101 885 1027 751 1101 z m 467 -323 l 559 -411 b 671 -263 609 -378 646 -328 b 688 -83 696 -198 701 -138 l 512 -84 b 525 -197 522 -115 526 -153 b 467 -323 524 -241 505 -283 z "},"ģ":{"ha":1162,"x_min":0,"x_max":0,"o":"m 581 1103 b 190 940 428 1103 297 1049 b 27 548 81 831 27 700 b 190 155 27 394 81 263 b 581 -7 297 47 427 -7 b 973 155 733 -7 864 47 b 1132 615 1081 262 1148 411 l 571 615 l 571 406 l 883 406 b 583 214 835 303 725 214 b 348 312 491 214 413 247 b 251 548 283 377 251 456 b 348 783 251 639 283 718 b 583 881 413 848 491 881 b 818 783 674 881 752 848 l 974 939 b 582 1101 885 1027 751 1101 z m 467 -323 l 559 -411 b 671 -263 609 -378 646 -328 b 688 -83 696 -198 701 -138 l 512 -84 b 525 -197 522 -115 526 -153 b 467 -323 524 -241 505 -283 z "},"Ī":{"ha":408,"x_min":0,"x_max":0,"o":"m 94 0 l 313 0 l 313 1098 l 94 1098 z m 401 1310 l 7 1310 l 7 1200 l 401 1200 z "},"ī":{"ha":408,"x_min":0,"x_max":0,"o":"m 94 0 l 313 0 l 313 1098 l 94 1098 z m 401 1310 l 7 1310 l 7 1200 l 401 1200 z "},"Į":{"ha":387,"x_min":0,"x_max":0,"o":""},"į":{"ha":387,"x_min":0,"x_max":0,"o":""},"İ":{"ha":342,"x_min":0,"x_max":0,"o":"m 61 0 l 281 0 l 281 1098 l 61 1098 z m 76 1297 b 171 1202 76 1245 119 1202 b 267 1297 223 1202 267 1245 b 171 1393 267 1349 223 1393 b 76 1297 119 1393 76 1349 z "},"ı":{"ha":342,"x_min":0,"x_max":0,"o":"m 61 0 l 281 0 l 281 1098 l 61 1098 z m 76 1297 b 171 1202 76 1245 119 1202 b 267 1297 223 1202 267 1245 b 171 1393 267 1349 223 1393 b 76 1297 119 1393 76 1349 z "},"Ķ":{"ha":893,"x_min":0,"x_max":0,"o":"m 61 1093 l 61 0 l 280 0 l 280 458 l 599 0 l 866 0 l 490 538 l 814 1093 l 560 1093 l 280 610 l 280 1093 z m 313 -323 l 404 -411 b 516 -263 454 -378 492 -328 b 533 -83 541 -198 547 -138 l 357 -84 b 370 -197 367 -115 372 -153 b 313 -323 369 -241 350 -283 z "},"ķ":{"ha":893,"x_min":0,"x_max":0,"o":"m 61 1093 l 61 0 l 280 0 l 280 458 l 599 0 l 866 0 l 490 538 l 814 1093 l 560 1093 l 280 610 l 280 1093 z m 313 -323 l 404 -411 b 516 -263 454 -378 492 -328 b 533 -83 541 -198 547 -138 l 357 -84 b 370 -197 367 -115 372 -153 b 313 -323 369 -241 350 -283 z "},"Ĺ":{"ha":754,"x_min":0,"x_max":0,"o":"m 272 1510 l 97 1261 l 176 1201 l 399 1409 z m 68 1098 l 68 0 l 727 0 l 727 219 l 288 219 l 288 1098 z "},"ĺ":{"ha":754,"x_min":0,"x_max":0,"o":"m 272 1510 l 97 1261 l 176 1201 l 399 1409 z m 68 1098 l 68 0 l 727 0 l 727 219 l 288 219 l 288 1098 z "},"Ļ":{"ha":754,"x_min":0,"x_max":0,"o":"m 68 1098 l 68 0 l 727 0 l 727 219 l 288 219 l 288 1098 z m 283 -323 l 375 -411 b 487 -263 425 -378 463 -328 b 504 -83 512 -198 517 -138 l 328 -84 b 341 -197 338 -115 343 -153 b 283 -323 340 -241 321 -283 z "},"ļ":{"ha":754,"x_min":0,"x_max":0,"o":"m 68 1098 l 68 0 l 727 0 l 727 219 l 288 219 l 288 1098 z m 283 -323 l 375 -411 b 487 -263 425 -378 463 -328 b 504 -83 512 -198 517 -138 l 328 -84 b 341 -197 338 -115 343 -153 b 283 -323 340 -241 321 -283 z "},"Ľ":{"ha":754,"x_min":0,"x_max":0,"o":"m 68 1098 l 68 0 l 727 0 l 727 219 l 288 219 l 288 1098 z m 401 859 l 493 770 b 605 918 543 804 581 853 b 622 1098 630 983 635 1043 l 446 1097 b 459 985 456 1066 461 1029 b 401 859 458 941 439 899 z "},"ľ":{"ha":754,"x_min":0,"x_max":0,"o":"m 68 1098 l 68 0 l 727 0 l 727 219 l 288 219 l 288 1098 z m 401 859 l 493 770 b 605 918 543 804 581 853 b 622 1098 630 983 635 1043 l 446 1097 b 459 985 456 1066 461 1029 b 401 859 458 941 439 899 z "},"Ł":{"ha":852,"x_min":0,"x_max":0,"o":"m 165 1098 l 165 567 l 27 497 l 27 315 l 165 384 l 165 0 l 825 0 l 825 219 l 385 219 l 385 494 l 652 627 l 652 810 l 385 677 l 385 1098 z "},"ł":{"ha":852,"x_min":0,"x_max":0,"o":"m 165 1098 l 165 567 l 27 497 l 27 315 l 165 384 l 165 0 l 825 0 l 825 219 l 385 219 l 385 494 l 652 627 l 652 810 l 385 677 l 385 1098 z "},"Ń":{"ha":1015,"x_min":0,"x_max":0,"o":"m 68 1116 l 68 -2 l 288 -2 l 288 605 l 947 -22 l 947 1095 l 726 1095 l 726 488 z m 564 1510 l 389 1261 l 468 1201 l 691 1409 z "},"ń":{"ha":1015,"x_min":0,"x_max":0,"o":"m 68 1116 l 68 -2 l 288 -2 l 288 605 l 947 -22 l 947 1095 l 726 1095 l 726 488 z m 564 1510 l 389 1261 l 468 1201 l 691 1409 z "},"Ņ":{"ha":1015,"x_min":0,"x_max":0,"o":"m 68 1116 l 68 -1 l 288 -1 l 288 606 l 947 -22 l 947 1096 l 726 1096 l 726 489 z m 393 -346 l 485 -434 b 597 -286 535 -400 572 -351 b 614 -106 622 -220 627 -161 l 438 -106 b 451 -219 448 -138 452 -175 b 393 -346 450 -263 431 -305 z "},"ņ":{"ha":1015,"x_min":0,"x_max":0,"o":"m 68 1116 l 68 -1 l 288 -1 l 288 606 l 947 -22 l 947 1096 l 726 1096 l 726 489 z m 393 -346 l 485 -434 b 597 -286 535 -400 572 -351 b 614 -106 622 -220 627 -161 l 438 -106 b 451 -219 448 -138 452 -175 b 393 -346 450 -263 431 -305 z "},"Ň":{"ha":1015,"x_min":0,"x_max":0,"o":"m 68 1116 l 68 -2 l 288 -2 l 288 605 l 947 -22 l 947 1095 l 726 1095 l 726 488 z m 328 1440 l 507 1158 l 686 1440 l 575 1440 l 507 1333 l 438 1440 z "},"ň":{"ha":1015,"x_min":0,"x_max":0,"o":"m 68 1116 l 68 -2 l 288 -2 l 288 605 l 947 -22 l 947 1095 l 726 1095 l 726 488 z m 328 1440 l 507 1158 l 686 1440 l 575 1440 l 507 1333 l 438 1440 z "},"Ő":{"ha":1165,"x_min":0,"x_max":0,"o":"m 502 1494 l 382 1215 l 472 1173 l 647 1422 z m 718 1494 l 599 1215 l 688 1173 l 864 1422 z m 582 1102 b 190 938 429 1102 298 1047 b 27 546 81 828 27 698 b 190 154 27 394 81 263 b 582 -8 298 46 429 -8 b 975 154 735 -8 866 46 b 1138 546 1083 263 1138 394 b 975 938 1138 698 1083 829 b 582 1102 865 1047 734 1102 z m 582 880 b 817 783 673 880 751 848 b 915 547 882 717 915 638 b 817 312 915 456 882 377 b 582 215 751 247 672 215 b 347 312 490 215 412 247 b 249 547 281 378 249 456 b 347 783 249 637 281 716 b 582 880 412 848 490 880 z "},"ő":{"ha":1165,"x_min":0,"x_max":0,"o":"m 502 1494 l 382 1215 l 472 1173 l 647 1422 z m 718 1494 l 599 1215 l 688 1173 l 864 1422 z m 582 1102 b 190 938 429 1102 298 1047 b 27 546 81 828 27 698 b 190 154 27 394 81 263 b 582 -8 298 46 429 -8 b 975 154 735 -8 866 46 b 1138 546 1083 263 1138 394 b 975 938 1138 698 1083 829 b 582 1102 865 1047 734 1102 z m 582 880 b 817 783 673 880 751 848 b 915 547 882 717 915 638 b 817 312 915 456 882 377 b 582 215 751 247 672 215 b 347 312 490 215 412 247 b 249 547 281 378 249 456 b 347 783 249 637 281 716 b 582 880 412 848 490 880 z "},"Œ":{"ha":1594,"x_min":0,"x_max":0,"o":"m 907 1095 l 907 996 b 582 1102 813 1067 705 1102 b 190 939 430 1102 299 1048 b 27 546 81 829 27 698 b 190 154 27 392 81 262 b 582 -7 298 47 429 -7 b 907 97 705 -7 813 27 l 907 -3 l 1567 -3 l 1567 215 l 1127 215 l 1127 435 l 1457 435 l 1457 654 l 1127 654 l 1127 875 l 1567 875 l 1567 1094 z m 582 880 b 817 781 672 880 751 847 b 907 618 864 734 894 679 l 907 473 b 817 311 894 412 864 358 b 582 213 751 245 673 213 b 347 311 489 213 411 245 b 249 546 281 376 249 455 b 347 781 249 636 281 714 b 582 880 411 847 490 880 z "},"œ":{"ha":1594,"x_min":0,"x_max":0,"o":"m 907 1095 l 907 996 b 582 1102 813 1067 705 1102 b 190 939 430 1102 299 1048 b 27 546 81 829 27 698 b 190 154 27 392 81 262 b 582 -7 298 47 429 -7 b 907 97 705 -7 813 27 l 907 -3 l 1567 -3 l 1567 215 l 1127 215 l 1127 435 l 1457 435 l 1457 654 l 1127 654 l 1127 875 l 1567 875 l 1567 1094 z m 582 880 b 817 781 672 880 751 847 b 907 618 864 734 894 679 l 907 473 b 817 311 894 412 864 358 b 582 213 751 245 673 213 b 347 311 489 213 411 245 b 249 546 281 376 249 455 b 347 781 249 636 281 714 b 582 880 411 847 490 880 z "},"Ŕ":{"ha":898,"x_min":0,"x_max":0,"o":"m 425 1099 l 68 1099 l 68 0 l 288 0 l 288 480 l 602 0 l 871 0 l 616 393 b 747 494 678 417 709 441 b 817 701 793 559 817 628 l 817 735 b 425 1099 817 943 646 1099 z m 490 1510 l 315 1261 l 394 1201 l 617 1409 z m 288 571 l 288 880 l 411 880 b 484 870 434 880 458 877 b 590 729 547 854 590 797 b 547 614 590 682 576 644 b 446 570 516 585 483 570 l 372 571 z "},"ŕ":{"ha":898,"x_min":0,"x_max":0,"o":"m 425 1099 l 68 1099 l 68 0 l 288 0 l 288 480 l 602 0 l 871 0 l 616 393 b 747 494 678 417 709 441 b 817 701 793 559 817 628 l 817 735 b 425 1099 817 943 646 1099 z m 490 1510 l 315 1261 l 394 1201 l 617 1409 z m 288 571 l 288 880 l 411 880 b 484 870 434 880 458 877 b 590 729 547 854 590 797 b 547 614 590 682 576 644 b 446 570 516 585 483 570 l 372 571 z "},"Ř":{"ha":898,"x_min":0,"x_max":0,"o":"m 425 1099 l 68 1099 l 68 0 l 288 0 l 288 480 l 602 0 l 871 0 l 616 393 b 747 494 678 417 709 441 b 817 701 793 559 817 628 l 817 735 b 425 1099 817 943 646 1099 z m 220 1463 l 399 1181 l 579 1463 l 468 1463 l 399 1356 l 331 1463 z m 288 571 l 288 880 l 411 880 b 484 870 434 880 458 877 b 590 729 547 854 590 797 b 547 614 590 682 576 644 b 446 570 516 585 483 570 l 372 571 z "},"ř":{"ha":898,"x_min":0,"x_max":0,"o":"m 425 1099 l 68 1099 l 68 0 l 288 0 l 288 480 l 602 0 l 871 0 l 616 393 b 747 494 678 417 709 441 b 817 701 793 559 817 628 l 817 735 b 425 1099 817 943 646 1099 z m 220 1463 l 399 1181 l 579 1463 l 468 1463 l 399 1356 l 331 1463 z m 288 571 l 288 880 l 411 880 b 484 870 434 880 458 877 b 590 729 547 854 590 797 b 547 614 590 682 576 644 b 446 570 516 585 483 570 l 372 571 z "},"Ş":{"ha":722,"x_min":0,"x_max":0,"o":"m 363 880 b 473 770 422 880 473 829 l 694 770 b 596 1004 694 861 662 939 b 361 1103 531 1070 453 1103 b 125 1004 269 1103 190 1070 b 27 770 60 939 27 861 b 72 618 27 709 42 658 b 278 465 124 546 193 495 b 416 416 366 434 327 449 b 472 326 453 403 472 373 b 361 214 472 266 420 214 l 361 214 b 250 324 300 214 250 263 l 28 324 b 125 89 28 232 60 154 b 264 5 168 47 214 19 l 346 -49 b 432 -172 401 -85 430 -126 b 370 -203 432 -196 412 -206 l 307 -199 l 282 -351 l 331 -356 b 542 -295 416 -363 492 -338 b 585 -166 573 -268 588 -225 b 485 14 582 -83 534 -25 b 597 89 526 30 564 55 b 695 324 663 154 695 232 b 649 477 695 386 680 437 b 435 621 592 549 521 597 b 299 679 347 647 370 632 b 251 769 267 699 251 729 b 363 880 251 829 303 880 z "},"ş":{"ha":722,"x_min":0,"x_max":0,"o":"m 363 880 b 473 770 422 880 473 829 l 694 770 b 596 1004 694 861 662 939 b 361 1103 531 1070 453 1103 b 125 1004 269 1103 190 1070 b 27 770 60 939 27 861 b 72 618 27 709 42 658 b 278 465 124 546 193 495 b 416 416 366 434 327 449 b 472 326 453 403 472 373 b 361 214 472 266 420 214 l 361 214 b 250 324 300 214 250 263 l 28 324 b 125 89 28 232 60 154 b 264 5 168 47 214 19 l 346 -49 b 432 -172 401 -85 430 -126 b 370 -203 432 -196 412 -206 l 307 -199 l 282 -351 l 331 -356 b 542 -295 416 -363 492 -338 b 585 -166 573 -268 588 -225 b 485 14 582 -83 534 -25 b 597 89 526 30 564 55 b 695 324 663 154 695 232 b 649 477 695 386 680 437 b 435 621 592 549 521 597 b 299 679 347 647 370 632 b 251 769 267 699 251 729 b 363 880 251 829 303 880 z "},"Š":{"ha":722,"x_min":0,"x_max":0,"o":"m 373 214 b 245 325 312 214 245 264 l 27 279 b 374 -8 52 116 205 -8 b 724 325 558 -8 724 141 b 464 622 724 477 602 582 b 263 769 388 645 263 671 b 375 880 263 830 314 880 b 485 770 435 880 485 830 l 703 816 b 373 1103 681 978 542 1103 b 40 770 189 1103 40 954 b 291 466 40 621 157 512 b 500 326 366 440 500 426 b 372 215 500 266 433 215 z m 182 1463 l 361 1182 l 541 1463 l 429 1463 l 361 1356 l 292 1463 z "},"š":{"ha":722,"x_min":0,"x_max":0,"o":"m 373 214 b 245 325 312 214 245 264 l 27 279 b 374 -8 52 116 205 -8 b 724 325 558 -8 724 141 b 464 622 724 477 602 582 b 263 769 388 645 263 671 b 375 880 263 830 314 880 b 485 770 435 880 485 830 l 703 816 b 373 1103 681 978 542 1103 b 40 770 189 1103 40 954 b 291 466 40 621 157 512 b 500 326 366 440 500 426 b 372 215 500 266 433 215 z m 182 1463 l 361 1182 l 541 1463 l 429 1463 l 361 1356 l 292 1463 z "},"Ţ":{"ha":824,"x_min":0,"x_max":0,"o":"m 27 1098 l 27 879 l 302 879 l 302 0 l 384 -54 b 470 -176 439 -89 468 -130 b 408 -208 471 -200 450 -211 l 345 -203 l 321 -355 l 370 -360 b 580 -300 455 -367 530 -343 b 623 -171 611 -273 625 -230 b 522 9 620 -87 572 -29 l 522 879 l 797 879 l 797 1098 z "},"ţ":{"ha":824,"x_min":0,"x_max":0,"o":"m 27 1098 l 27 879 l 302 879 l 302 0 l 384 -54 b 470 -176 439 -89 468 -130 b 408 -208 471 -200 450 -211 l 345 -203 l 321 -355 l 370 -360 b 580 -300 455 -367 530 -343 b 623 -171 611 -273 625 -230 b 522 9 620 -87 572 -29 l 522 879 l 797 879 l 797 1098 z "},"Ť":{"ha":824,"x_min":0,"x_max":0,"o":"m 27 1098 l 27 879 l 302 879 l 302 0 l 522 0 l 522 879 l 797 879 l 797 1098 z m 233 1463 l 411 1181 l 591 1463 l 480 1463 l 411 1356 l 343 1463 z "},"ť":{"ha":824,"x_min":0,"x_max":0,"o":"m 27 1098 l 27 879 l 302 879 l 302 0 l 522 0 l 522 879 l 797 879 l 797 1098 z m 233 1463 l 411 1181 l 591 1463 l 480 1463 l 411 1356 l 343 1463 z "},"Ū":{"ha":1006,"x_min":0,"x_max":0,"o":"m 503 214 b 282 434 383 214 282 315 l 282 1095 l 61 1095 l 61 433 b 191 121 61 311 104 207 b 504 -8 277 35 381 -8 b 816 121 625 -8 729 35 b 945 433 902 207 945 311 l 945 1095 l 724 1095 l 724 434 b 503 214 724 316 622 214 z m 701 1301 l 306 1301 l 306 1191 l 701 1191 z "},"ū":{"ha":1006,"x_min":0,"x_max":0,"o":"m 503 214 b 282 434 383 214 282 315 l 282 1095 l 61 1095 l 61 433 b 191 121 61 311 104 207 b 504 -8 277 35 381 -8 b 816 121 625 -8 729 35 b 945 433 902 207 945 311 l 945 1095 l 724 1095 l 724 434 b 503 214 724 316 622 214 z m 701 1301 l 306 1301 l 306 1191 l 701 1191 z "},"Ů":{"ha":1006,"x_min":0,"x_max":0,"o":"m 503 214 b 282 434 383 214 282 315 l 282 1095 l 61 1095 l 61 433 b 191 121 61 311 104 207 b 504 -8 277 35 381 -8 b 816 121 625 -8 729 35 b 945 433 902 207 945 311 l 945 1095 l 724 1095 l 724 434 b 503 214 724 316 622 214 z m 503 1324 b 557 1272 539 1324 557 1307 b 503 1218 557 1236 539 1218 b 450 1272 467 1218 450 1236 b 503 1324 450 1307 467 1324 z m 375 1272 b 503 1144 375 1201 432 1144 b 631 1272 574 1144 631 1202 b 503 1400 631 1342 573 1400 b 375 1272 433 1400 375 1343 z "},"ů":{"ha":1006,"x_min":0,"x_max":0,"o":"m 503 214 b 282 434 383 214 282 315 l 282 1095 l 61 1095 l 61 433 b 191 121 61 311 104 207 b 504 -8 277 35 381 -8 b 816 121 625 -8 729 35 b 945 433 902 207 945 311 l 945 1095 l 724 1095 l 724 434 b 503 214 724 316 622 214 z m 503 1324 b 557 1272 539 1324 557 1307 b 503 1218 557 1236 539 1218 b 450 1272 467 1218 450 1236 b 503 1324 450 1307 467 1324 z m 375 1272 b 503 1144 375 1201 432 1144 b 631 1272 574 1144 631 1202 b 503 1400 631 1342 573 1400 b 375 1272 433 1400 375 1343 z "},"Ű":{"ha":1006,"x_min":0,"x_max":0,"o":"m 503 214 b 282 434 383 214 282 315 l 282 1095 l 61 1095 l 61 433 b 191 121 61 311 104 207 b 504 -8 277 35 381 -8 b 816 121 625 -8 729 35 b 945 433 902 207 945 311 l 945 1095 l 724 1095 l 724 434 b 503 214 724 316 622 214 z m 418 1535 l 298 1255 l 388 1213 l 564 1463 z m 635 1535 l 515 1255 l 605 1213 l 781 1463 z "},"ű":{"ha":1006,"x_min":0,"x_max":0,"o":"m 503 214 b 282 434 383 214 282 315 l 282 1095 l 61 1095 l 61 433 b 191 121 61 311 104 207 b 504 -8 277 35 381 -8 b 816 121 625 -8 729 35 b 945 433 902 207 945 311 l 945 1095 l 724 1095 l 724 434 b 503 214 724 316 622 214 z m 418 1535 l 298 1255 l 388 1213 l 564 1463 z m 635 1535 l 515 1255 l 605 1213 l 781 1463 z "},"Ų":{"ha":1006,"x_min":0,"x_max":0,"o":"m 503 212 b 282 432 383 212 282 313 l 282 1093 l 61 1093 l 61 431 b 191 119 61 309 104 205 b 449 -7 264 45 350 3 b 414 -116 427 -41 415 -78 b 457 -245 412 -175 426 -218 b 668 -306 507 -288 583 -313 b 718 -301 701 -303 717 -301 l 693 -149 l 630 -154 b 568 -122 587 -157 567 -146 b 621 -28 570 -88 587 -57 b 707 37 654 1 683 22 b 736 54 718 43 727 48 b 816 119 763 71 790 92 b 945 431 902 205 945 309 l 945 1093 l 724 1093 l 724 432 b 503 212 724 314 622 212 z "},"ų":{"ha":1006,"x_min":0,"x_max":0,"o":"m 503 212 b 282 432 383 212 282 313 l 282 1093 l 61 1093 l 61 431 b 191 119 61 309 104 205 b 449 -7 264 45 350 3 b 414 -116 427 -41 415 -78 b 457 -245 412 -175 426 -218 b 668 -306 507 -288 583 -313 b 718 -301 701 -303 717 -301 l 693 -149 l 630 -154 b 568 -122 587 -157 567 -146 b 621 -28 570 -88 587 -57 b 707 37 654 1 683 22 b 736 54 718 43 727 48 b 816 119 763 71 790 92 b 945 431 902 205 945 309 l 945 1093 l 724 1093 l 724 432 b 503 212 724 314 622 212 z "},"Ź":{"ha":823,"x_min":0,"x_max":0,"o":"m 27 1096 l 27 877 l 448 877 l 27 -1 l 796 -1 l 796 217 l 376 217 l 796 1096 z m 449 1510 l 273 1261 l 353 1201 l 576 1409 z "},"ź":{"ha":823,"x_min":0,"x_max":0,"o":"m 27 1096 l 27 877 l 448 877 l 27 -1 l 796 -1 l 796 217 l 376 217 l 796 1096 z m 449 1510 l 273 1261 l 353 1201 l 576 1409 z "},"Ż":{"ha":823,"x_min":0,"x_max":0,"o":"m 27 1096 l 27 877 l 448 877 l 27 -1 l 796 -1 l 796 217 l 376 217 l 796 1096 z m 316 1297 b 412 1202 316 1244 359 1202 b 507 1297 464 1202 507 1245 b 412 1393 507 1349 464 1393 b 316 1297 359 1393 316 1350 z "},"ż":{"ha":823,"x_min":0,"x_max":0,"o":"m 27 1096 l 27 877 l 448 877 l 27 -1 l 796 -1 l 796 217 l 376 217 l 796 1096 z m 316 1297 b 412 1202 316 1244 359 1202 b 507 1297 464 1202 507 1245 b 412 1393 507 1349 464 1393 b 316 1297 359 1393 316 1350 z "},"Ž":{"ha":823,"x_min":0,"x_max":0,"o":"m 233 1463 l 411 1181 l 591 1463 l 479 1463 l 411 1356 l 342 1463 z m 27 1096 l 27 877 l 448 877 l 27 -1 l 796 -1 l 796 217 l 376 217 l 796 1096 z "},"ž":{"ha":823,"x_min":0,"x_max":0,"o":"m 233 1463 l 411 1181 l 591 1463 l 479 1463 l 411 1356 l 342 1463 z m 27 1096 l 27 877 l 448 877 l 27 -1 l 796 -1 l 796 217 l 376 217 l 796 1096 z "},"Ə":{"ha":1163,"x_min":0,"x_max":0,"o":"m 277 1008 l 396 823 b 581 880 450 861 512 880 b 815 781 672 880 750 847 b 895 656 851 744 878 703 l 38 656 b 27 546 31 623 27 586 b 191 154 27 392 82 262 b 583 -8 299 46 429 -8 b 974 154 735 -8 866 46 b 1136 546 1082 262 1136 393 b 974 939 1136 698 1082 829 b 583 1102 865 1048 735 1102 l 582 1100 b 277 1008 462 1100 357 1060 z m 267 435 l 895 435 b 815 311 878 389 852 348 b 581 213 751 245 672 213 b 267 435 425 213 309 316 z "},"ǝ":{"ha":1163,"x_min":0,"x_max":0,"o":"m 277 1008 l 396 823 b 581 880 450 861 512 880 b 815 781 672 880 750 847 b 895 656 851 744 878 703 l 38 656 b 27 546 31 623 27 586 b 191 154 27 392 82 262 b 583 -8 299 46 429 -8 b 974 154 735 -8 866 46 b 1136 546 1082 262 1136 393 b 974 939 1136 698 1082 829 b 583 1102 865 1048 735 1102 l 582 1100 b 277 1008 462 1100 357 1060 z m 267 435 l 895 435 b 815 311 878 389 852 348 b 581 213 751 245 672 213 b 267 435 425 213 309 316 z "},"Ț":{"ha":824,"x_min":0,"x_max":0,"o":"m 27 1098 l 27 879 l 302 879 l 302 0 l 522 0 l 522 879 l 797 879 l 797 1098 z m 294 -323 l 385 -411 b 497 -263 435 -378 473 -328 b 514 -83 522 -198 528 -138 l 338 -84 b 352 -197 348 -115 353 -153 b 294 -323 350 -241 331 -283 z "},"ț":{"ha":824,"x_min":0,"x_max":0,"o":"m 27 1098 l 27 879 l 302 879 l 302 0 l 522 0 l 522 879 l 797 879 l 797 1098 z m 294 -323 l 385 -411 b 497 -263 435 -378 473 -328 b 514 -83 522 -198 528 -138 l 338 -84 b 352 -197 348 -115 353 -153 b 294 -323 350 -241 331 -283 z "},"‐":{"ha":631,"x_min":0,"x_max":0,"o":"m 47 369 l 583 369 l 583 561 l 47 561 z "},"‑":{"ha":631,"x_min":0,"x_max":0,"o":"m 47 369 l 583 369 l 583 561 l 47 561 z "},"‒":{"ha":705,"x_min":0,"x_max":0,"o":"m 47 369 l 658 369 l 658 561 l 47 561 z "},"–":{"ha":705,"x_min":0,"x_max":0,"o":"m 47 369 l 658 369 l 658 561 l 47 561 z "},"—":{"ha":1153,"x_min":0,"x_max":0,"o":"m 47 369 l 1105 369 l 1105 561 l 47 561 z "},"―":{"ha":1377,"x_min":0,"x_max":0,"o":"m 47 369 l 1329 369 l 1329 561 l 47 561 z "},"‘":{"ha":402,"x_min":0,"x_max":0,"o":"m 348 870 b 248 999 348 938 301 981 b 282 1068 240 1028 251 1051 b 321 1106 314 1085 327 1098 b 222 1121 313 1117 244 1128 b 129 1064 181 1106 150 1087 b 54 873 85 1015 54 958 b 203 724 54 794 124 724 l 202 724 b 348 870 282 724 348 790 z m 250 1101 z "},"’":{"ha":402,"x_min":0,"x_max":0,"o":"m 54 975 b 154 846 54 907 101 863 b 120 777 163 817 151 794 b 81 739 88 760 76 747 b 180 724 89 728 158 717 b 273 781 222 739 252 758 b 348 972 317 830 348 886 b 199 1121 348 1051 278 1121 l 200 1120 b 54 975 120 1120 54 1054 z m 153 744 z "},"‚":{"ha":402,"x_min":0,"x_max":0,"o":"m 54 121 b 154 -7 54 53 101 10 b 120 -76 163 -36 151 -59 b 81 -115 88 -93 76 -106 b 180 -130 89 -126 158 -136 b 273 -73 222 -115 252 -96 b 348 119 317 -24 348 33 b 199 268 348 197 278 268 l 200 267 b 54 121 120 267 54 201 z m 153 -109 z "},"‛":{"ha":402,"x_min":0,"x_max":0,"o":"m 348 975 b 248 846 348 907 301 863 b 282 777 240 817 251 794 b 321 739 314 760 327 747 b 222 724 313 728 244 717 b 129 781 181 739 150 758 b 54 972 85 830 54 886 b 203 1121 54 1051 124 1121 l 202 1120 b 348 975 282 1120 348 1054 z m 250 744 z "},"“":{"ha":755,"x_min":0,"x_max":0,"o":"m 701 870 b 601 999 701 938 653 981 b 635 1068 592 1028 604 1051 b 673 1106 667 1085 679 1098 b 574 1121 665 1117 596 1128 b 482 1064 533 1106 502 1087 b 407 873 438 1015 407 958 b 555 724 407 794 477 724 l 555 724 b 701 870 635 724 701 790 z m 602 1101 z m 348 870 b 248 999 348 938 301 981 b 282 1068 240 1028 251 1051 b 321 1106 314 1085 327 1098 b 222 1121 313 1117 244 1128 b 129 1064 181 1106 150 1087 b 54 873 85 1015 54 958 b 203 724 54 794 124 724 l 202 724 b 348 870 282 724 348 790 z m 250 1101 z "},"”":{"ha":755,"x_min":0,"x_max":0,"o":"m 54 975 b 154 846 54 907 101 863 b 120 777 163 817 151 794 b 81 739 88 760 76 747 b 180 724 89 728 158 717 b 273 781 222 739 252 758 b 348 972 317 830 348 886 b 199 1121 348 1051 278 1121 l 200 1120 b 54 975 120 1120 54 1054 z m 153 744 z m 407 975 b 507 846 407 907 454 863 b 472 777 515 817 504 794 b 434 739 441 760 428 747 b 533 724 442 728 511 717 b 626 781 574 739 605 758 b 701 972 669 830 701 886 b 552 1121 701 1051 631 1121 l 553 1120 b 407 975 473 1120 407 1054 z m 505 744 z "},"„":{"ha":755,"x_min":0,"x_max":0,"o":"m 407 121 b 507 -7 407 53 454 10 b 472 -76 515 -36 504 -59 b 434 -115 441 -93 428 -106 b 533 -130 442 -126 511 -136 b 626 -73 574 -115 605 -96 b 701 119 669 -24 701 33 b 552 268 701 197 631 268 l 553 267 b 407 121 473 267 407 201 z m 505 -109 z m 54 121 b 154 -7 54 53 101 10 b 120 -76 163 -36 151 -59 b 81 -115 88 -93 76 -106 b 180 -130 89 -126 158 -136 b 273 -73 222 -115 252 -96 b 348 119 317 -24 348 33 b 199 268 348 197 278 268 l 200 267 b 54 121 120 267 54 201 z m 153 -109 z "},"‟":{"ha":755,"x_min":0,"x_max":0,"o":"m 701 975 b 601 846 701 907 653 863 b 635 777 592 817 604 794 b 673 739 667 760 679 747 b 574 724 665 728 596 717 b 482 781 533 739 502 758 b 407 972 438 830 407 886 b 555 1121 407 1051 477 1121 l 555 1120 b 701 975 635 1120 701 1054 z m 602 744 z m 348 975 b 248 846 348 907 301 863 b 282 777 240 817 251 794 b 321 739 314 760 327 747 b 222 724 313 728 244 717 b 129 781 181 739 150 758 b 54 972 85 830 54 886 b 203 1121 54 1051 124 1121 l 202 1120 b 348 975 282 1120 348 1054 z m 250 744 z "},"‥":{"ha":952,"x_min":0,"x_max":0,"o":"m 710 -35 b 850 105 787 -35 850 28 b 710 245 850 181 786 245 b 570 105 633 245 570 182 b 710 -35 570 28 633 -35 z m 242 -35 b 382 105 319 -35 382 28 b 242 245 382 181 318 245 b 102 105 165 245 102 182 b 242 -35 102 28 165 -35 z "},"…":{"ha":1705,"x_min":0,"x_max":0,"o":"m 1395 -35 b 1535 105 1472 -35 1535 28 b 1395 245 1535 181 1471 245 b 1255 105 1318 245 1255 182 b 1395 -35 1255 28 1318 -35 z m 852 -35 b 993 105 929 -35 993 28 b 852 245 993 181 929 245 b 712 105 776 245 712 182 b 852 -35 712 28 775 -35 z m 310 -35 b 450 105 386 -35 450 28 b 310 245 450 181 386 245 b 170 105 233 245 170 182 b 310 -35 170 28 233 -35 z "},"‰":{"ha":1565,"x_min":0,"x_max":0,"o":"m 335 875 b 254 792 333 830 298 792 b 197 814 232 792 213 799 b 198 936 163 843 162 907 b 254 958 217 951 236 958 b 335 875 295 957 336 918 z m 1040 245 b 1286 0 1040 111 1151 0 b 1531 245 1420 0 1531 112 b 1286 492 1531 379 1419 492 b 1040 245 1152 492 1040 380 z m 1285 361 b 1400 245 1362 361 1400 322 b 1285 131 1400 169 1362 131 b 1170 245 1208 131 1170 169 b 1285 361 1170 322 1208 361 z m 725 1094 l 34 0 l 197 0 l 888 1094 z m 500 245 b 746 0 500 111 611 0 b 991 245 880 0 991 112 b 919 418 991 313 967 371 b 746 492 871 467 813 492 b 500 245 612 492 500 380 z m 745 360 b 860 245 822 360 860 322 b 745 131 860 169 822 131 b 630 245 668 131 630 169 b 745 360 630 322 668 360 z m 34 874 b 254 654 34 753 133 654 b 473 874 373 654 473 756 b 254 1093 473 992 371 1093 b 34 874 135 1093 34 994 z "},"‿":{"ha":1351,"x_min":0,"x_max":0,"o":"m 147 503 l 105 159 l 173 159 l 195 345 l 374 153 b 464 884 404 396 434 640 l 271 660 l 134 884 l 92 542 l 160 542 l 177 681 l 257 547 l 370 681 b 325 309 355 557 340 433 z m 573 652 l 612 722 l 633 652 z m 538 593 l 653 593 b 668 547 658 578 663 562 l 686 496 l 795 153 l 989 496 l 917 496 l 815 312 b 744 542 791 389 767 464 l 632 884 l 437 542 l 509 542 l 538 591 z m 768 541 l 836 541 l 852 673 l 922 541 l 1004 541 l 943 658 b 1025 755 986 673 1019 710 b 920 877 1035 827 992 877 l 811 877 l 797 760 b 768 541 788 686 778 613 z m 859 715 b 870 810 863 747 866 779 l 907 810 b 947 797 925 810 939 806 b 907 715 974 766 943 715 z m 1196 779 l 1263 779 b 1174 879 1270 835 1228 879 b 1059 779 1116 879 1065 831 b 1143 680 1052 718 1101 693 l 1143 677 b 1179 640 1160 668 1182 667 b 1141 606 1176 623 1160 606 b 1111 640 1122 606 1107 621 l 1042 640 b 1133 539 1035 583 1078 539 b 1247 640 1190 539 1240 587 b 1177 733 1252 694 1214 720 b 1139 751 1159 738 1155 739 b 1165 813 1112 771 1135 813 b 1196 779 1184 813 1196 799 z m 467 498 l 425 160 l 627 160 l 635 227 l 500 227 l 509 295 l 610 295 l 618 362 l 517 362 l 526 431 l 660 431 l 668 498 z m 47 1042 l 47 52 l 1303 52 l 1303 1042 z m 1282 1019 l 1282 73 l 70 73 l 70 1019 z "},"⁋":{"ha":1351,"x_min":0,"x_max":0,"o":"m 147 503 l 105 159 l 173 159 l 195 345 l 374 153 b 464 884 404 396 434 640 l 271 660 l 134 884 l 92 542 l 160 542 l 177 681 l 257 547 l 370 681 b 325 309 355 557 340 433 z m 573 652 l 612 722 l 633 652 z m 538 593 l 653 593 b 668 547 658 578 663 562 l 686 496 l 795 153 l 989 496 l 917 496 l 815 312 b 744 542 791 389 767 464 l 632 884 l 437 542 l 509 542 l 538 591 z m 768 541 l 836 541 l 852 673 l 922 541 l 1004 541 l 943 658 b 1025 755 986 673 1019 710 b 920 877 1035 827 992 877 l 811 877 l 797 760 b 768 541 788 686 778 613 z m 859 715 b 870 810 863 747 866 779 l 907 810 b 947 797 925 810 939 806 b 907 715 974 766 943 715 z m 1196 779 l 1263 779 b 1174 879 1270 835 1228 879 b 1059 779 1116 879 1065 831 b 1143 680 1052 718 1101 693 l 1143 677 b 1179 640 1160 668 1182 667 b 1141 606 1176 623 1160 606 b 1111 640 1122 606 1107 621 l 1042 640 b 1133 539 1035 583 1078 539 b 1247 640 1190 539 1240 587 b 1177 733 1252 694 1214 720 b 1139 751 1159 738 1155 739 b 1165 813 1112 771 1135 813 b 1196 779 1184 813 1196 799 z m 467 498 l 425 160 l 627 160 l 635 227 l 500 227 l 509 295 l 610 295 l 618 362 l 517 362 l 526 431 l 660 431 l 668 498 z m 47 1042 l 47 52 l 1303 52 l 1303 1042 z m 1282 1019 l 1282 73 l 70 73 l 70 1019 z "},"₀":{"ha":548,"x_min":0,"x_max":0,"o":"m 61 547 b 274 271 61 400 139 271 b 430 353 339 271 391 298 b 487 547 468 406 487 470 b 430 740 487 624 468 688 b 274 823 391 796 339 823 b 61 547 139 823 61 694 z m 341 677 b 377 547 365 643 377 600 b 341 417 377 494 365 450 b 274 382 324 394 301 382 b 207 417 246 382 224 394 b 171 547 183 451 171 494 b 207 677 171 600 183 643 b 274 713 224 701 246 713 b 341 677 301 713 324 701 z "},"₁":{"ha":287,"x_min":0,"x_max":0,"o":"m 61 777 l 61 662 l 116 678 l 116 274 l 226 274 l 226 823 z "},"₂":{"ha":515,"x_min":0,"x_max":0,"o":"m 258 715 b 343 630 305 715 343 677 b 320 570 343 614 336 594 b 259 493 304 546 284 521 b 80 337 209 440 141 380 l 61 275 l 451 275 l 451 384 l 299 384 b 361 444 323 403 341 423 b 427 534 388 473 410 502 b 454 630 445 565 454 597 b 396 768 454 683 435 729 b 259 824 358 805 313 824 b 120 768 205 824 159 805 b 63 630 82 730 63 684 l 173 630 b 258 715 173 676 212 715 z "},"₃":{"ha":483,"x_min":0,"x_max":0,"o":"m 239 390 b 169 441 205 390 175 414 l 61 414 b 126 316 71 374 93 341 b 238 279 159 291 197 279 b 367 330 289 279 332 296 b 422 457 404 365 422 408 b 367 584 422 507 404 549 b 363 587 367 585 365 586 b 394 680 384 614 394 645 b 348 790 394 723 379 759 b 238 836 317 821 281 836 b 86 713 161 836 100 778 l 195 690 b 238 724 199 708 216 724 b 282 680 263 724 282 704 l 283 681 b 264 636 283 665 277 650 b 201 608 251 623 230 614 l 178 563 b 277 529 221 561 254 549 b 311 458 300 508 311 484 b 239 390 311 419 277 390 z "},"₄":{"ha":568,"x_min":0,"x_max":0,"o":"m 224 823 l 61 392 l 343 392 l 343 274 l 452 274 l 452 392 l 507 392 l 507 501 l 452 501 l 452 714 l 343 714 l 343 501 l 226 501 l 343 823 z "},"₅":{"ha":505,"x_min":0,"x_max":0,"o":"m 244 383 b 171 424 212 383 188 396 l 61 389 b 244 273 89 327 158 273 b 386 329 299 273 346 292 b 444 465 425 366 444 411 b 385 598 444 516 424 561 b 251 654 345 635 301 654 b 193 646 222 654 215 653 l 199 711 l 399 711 l 399 820 l 107 820 l 80 536 l 141 504 b 192 540 162 523 179 535 b 251 548 205 545 225 548 l 251 548 b 305 522 277 548 290 536 b 330 464 322 506 330 487 b 244 383 330 418 291 383 z "},"₆":{"ha":507,"x_min":0,"x_max":0,"o":"m 254 379 b 171 461 208 379 171 417 b 254 544 171 507 208 544 l 254 545 b 337 462 299 545 337 506 b 254 379 337 417 299 379 z m 237 819 l 95 573 b 85 554 92 569 87 559 b 61 461 70 526 61 494 b 117 326 61 408 80 363 b 253 270 154 289 200 270 b 389 326 306 270 351 289 b 446 461 427 363 446 408 b 394 592 446 512 428 555 b 267 653 359 629 317 649 l 362 818 z "},"₇":{"ha":496,"x_min":0,"x_max":0,"o":"m 61 819 l 61 712 l 283 712 l 146 270 l 261 270 l 435 819 z "},"₈":{"ha":479,"x_min":0,"x_max":0,"o":"m 199 671 b 241 712 199 694 218 712 b 282 671 262 712 282 693 b 240 630 282 649 263 630 l 241 630 b 199 671 219 630 199 649 z m 362 582 b 391 671 382 608 391 638 b 347 777 391 712 377 748 b 240 821 317 806 282 821 b 134 777 199 821 163 806 b 89 671 104 748 89 712 b 118 582 89 638 99 608 b 61 451 80 546 61 502 b 114 325 61 401 79 359 b 240 273 149 290 191 273 b 366 325 290 273 332 290 b 418 451 401 359 418 402 b 362 582 418 503 400 546 z m 240 381 b 171 450 201 381 171 412 b 239 519 171 487 201 519 l 240 520 b 309 450 277 520 309 487 b 240 381 309 413 277 381 z "},"₉":{"ha":507,"x_min":0,"x_max":0,"o":"m 171 632 b 253 715 171 677 208 715 b 336 632 298 715 336 677 b 253 550 336 587 298 550 b 171 632 208 550 171 588 z m 270 275 l 413 522 b 424 544 416 527 421 538 b 446 632 438 572 446 601 b 389 768 446 685 427 730 b 253 824 351 805 306 824 b 117 768 200 824 154 805 b 61 632 80 730 61 684 b 113 501 61 581 78 538 b 239 440 147 464 189 444 l 144 275 z "},"€":{"ha":1084,"x_min":0,"x_max":0,"o":"m 1050 154 l 893 311 b 658 213 828 246 749 213 b 422 311 565 213 487 245 b 354 408 394 339 371 371 l 808 408 l 820 517 l 326 517 b 325 546 325 530 325 540 b 327 585 325 559 326 572 l 827 585 l 838 694 l 359 694 b 422 781 375 725 396 754 b 658 878 487 846 565 878 b 892 781 748 878 826 846 l 1049 937 b 656 1099 959 1024 825 1099 l 657 1102 b 265 939 504 1102 373 1048 b 121 694 193 867 145 785 l 45 694 l 34 585 l 103 585 b 102 547 103 576 102 564 b 103 517 102 533 103 524 l 45 517 l 34 408 l 119 408 b 265 154 142 312 191 228 b 657 -7 373 47 503 -7 b 1050 154 828 -7 960 65 z "}}}
